<?xml version="1.0" standalone="no"?>
<!DOCTYPE svg PUBLIC "-//W3C//DTD SVG 1.1//EN" "http://www.w3.org/Graphics/SVG/1.1/DTD/svg11.dtd" >
<svg xmlns="http://www.w3.org/2000/svg" xmlns:xlink="http://www.w3.org/1999/xlink" version="1.1">
<metadata>
Created by FontForge 20190801 at Tue May 11 16:17:20 2021
 By root
Luthon Southard Script Demo Lemonthe. 2021. All Rights Reserved
</metadata>
<defs>
<font id="LuthonSouthardScript" horiz-adv-x="231" >
  <font-face 
    font-family="Luthon Southard Script"
    font-weight="400"
    font-stretch="normal"
    units-per-em="1000"
    panose-1="2 0 6 0 0 0 0 0 0 0"
    ascent="800"
    descent="-200"
    x-height="185"
    cap-height="794"
    bbox="-333 -543 1389.74 888"
    underline-thickness="50"
    underline-position="-100"
    unicode-range="U+0020-E019"
  />
<missing-glyph horiz-adv-x="500" 
 />
    <glyph glyph-name="a_a" unicode="aa" horiz-adv-x="722" 
d="M734 183c4 -4 5 -10 2 -14c-4 -5 -9 -11 -15 -18c-40 -54 -114 -150 -185 -150c-4 0 -8 0 -12 1c-25 4 -43 18 -53 40c-10 24 -11 53 -5 81l-12 -15c-42 -55 -83 -108 -122 -108c-4 0 -8 1 -12 2c-10 3 -25 13 -25 45c0 8 1 17 3 27c-36 -39 -79 -73 -122 -73
c-4 0 -8 0 -12 1c-22 4 -39 16 -48 37c-13 30 -9 72 1 108c-5 -6 -9 -13 -14 -20c-48 -65 -93 -126 -133 -126c-3 0 -7 0 -10 1c-9 3 -24 12 -24 44c0 28 12 65 31 97c22 37 53 63 85 73c21 7 40 3 52 -10c5 -5 11 -15 11 -30c11 15 21 27 31 38c3 3 9 4 13 1
c4 -4 5 -9 2 -13c-23 -34 -45 -114 -27 -155c6 -15 17 -23 33 -26c59 -10 130 80 155 111c19 31 48 60 86 72c20 7 41 3 55 -10c7 -8 12 -17 13 -28c4 6 9 11 14 16c3 4 9 4 13 1s5 -9 2 -13c-20 -30 -31 -86 -16 -120c7 -16 20 -26 38 -29c63 -10 138 89 179 141
c5 8 10 14 15 19c3 5 9 5 13 2zM92 145c-2 3 -3 7 -2 10c7 17 7 30 0 38c-4 4 -11 7 -19 7c-4 0 -8 -1 -13 -2c-28 -9 -54 -33 -75 -66c-17 -28 -28 -61 -28 -86c0 -6 1 -22 10 -25c29 -9 83 64 122 118c1 2 3 4 5 6zM455 141c-1 2 -1 5 0 7c3 14 2 24 -6 32
c-5 5 -13 8 -22 8c-4 0 -9 -1 -13 -3c-32 -10 -58 -35 -75 -63c0 0 -1 -1 -1 -2v0c-15 -25 -24 -52 -24 -73c1 -7 2 -23 12 -26c29 -10 74 48 113 99c5 7 11 14 16 21z" />
    <glyph glyph-name="c_c" unicode="cc" horiz-adv-x="484" 
d="M496 183c4 -3 5 -9 2 -14c-14 -18 -135 -173 -222 -173c-6 0 -10 0 -15 1c-36 9 -52 40 -44 85c1 6 2 13 4 19c-53 -58 -132 -128 -198 -128c-7 0 -13 0 -20 2c-42 9 -61 46 -51 101c7 40 28 85 57 120c32 39 67 59 99 56c17 -2 30 -11 36 -26c9 -18 5 -40 -3 -51
c-3 -4 -9 -5 -14 -2c-4 3 -5 9 -2 13c4 6 7 21 2 32c-4 8 -11 13 -21 14c-25 3 -55 -15 -82 -49c-27 -32 -47 -74 -53 -111c-5 -30 -3 -69 37 -78c33 -8 80 12 135 58c51 43 94 95 115 122c1 2 3 4 5 7v0v0c1 0 1 1 1 1c27 33 57 50 83 47c15 -2 26 -10 32 -22
c7 -16 3 -34 -3 -44c-3 -4 -10 -5 -14 -2s-5 9 -2 13c3 5 5 16 1 25c-3 6 -8 9 -16 10c-19 2 -44 -12 -66 -39c0 -1 0 -1 -1 -1c-1 -2 -3 -4 -5 -7c-18 -25 -32 -56 -37 -83c-4 -24 -2 -55 29 -63c62 -14 169 102 217 165c3 4 10 5 14 2z" />
    <glyph glyph-name="e_e" unicode="ee" horiz-adv-x="440" 
d="M452 183c4 -4 5 -10 1 -14c-20 -24 -61 -73 -106 -111c-46 -39 -85 -58 -119 -58c-6 0 -13 1 -19 2c-20 6 -33 19 -38 38c-4 15 -3 32 2 49c-60 -59 -112 -89 -156 -89c-8 0 -15 1 -22 3c-37 9 -54 41 -46 86c6 31 23 65 46 90c26 29 56 44 83 40c17 -2 24 -10 27 -17
c4 -13 -2 -30 -19 -50c-27 -29 -73 -57 -106 -48c-3 0 -5 2 -6 3l-6 -21c-3 -20 -4 -56 32 -65c50 -12 120 33 204 129c5 8 11 14 17 20c21 20 43 28 62 22c10 -3 20 -13 15 -32c-5 -16 -20 -36 -39 -51c-12 -10 -38 -26 -63 -19h-2c-5 -17 -7 -33 -4 -45
c3 -13 11 -20 24 -24c73 -19 187 116 224 161c4 4 10 4 14 1zM219 138c-7 -9 -13 -19 -18 -30c29 -6 71 33 78 57c2 7 0 8 -2 8c-16 5 -33 -8 -42 -17c-5 -5 -10 -10 -14 -15c0 -1 -1 -1 -1 -2c-1 0 -1 -1 -1 -1zM76 200c-36 4 -75 -34 -96 -77h2h2c25 -7 65 17 87 42
c13 15 17 26 15 30c-1 4 -7 5 -10 5z" />
    <glyph glyph-name="f_f" unicode="ff" horiz-adv-x="365" 
d="M377 183c5 -3 6 -9 3 -13c-23 -33 -144 -164 -249 -240c-3 -12 -7 -24 -10 -35c18 -9 29 -22 35 -34c29 -54 0 -141 -33 -180c-16 -19 -32 -26 -47 -22c-7 3 -12 9 -14 19c-6 31 11 115 36 205c-12 3 -27 4 -43 2c-5 0 -9 3 -10 7c-1 5 1 10 5 12c20 8 41 22 64 38
c5 15 9 29 14 43c4 16 10 33 16 52c-59 -57 -145 -116 -216 -140c20 -9 31 -23 38 -37c36 -68 -3 -196 -46 -247c-14 -16 -26 -21 -35 -21c-3 0 -5 0 -7 1c-7 3 -13 8 -16 16c-18 39 8 159 41 275c-7 1 -14 2 -21 2c-3 -1 -7 -1 -10 -1c-5 0 -9 4 -10 9c0 5 4 10 9 11h9
c9 1 20 3 31 7l18 60c48 156 114 336 160 437c2 5 8 7 13 5s7 -7 5 -12c0 -1 -36 -112 -48 -156c-1 -6 -7 -9 -12 -7c-2 0 -4 1 -5 3c-32 -87 -66 -185 -94 -276c-5 -16 -10 -31 -14 -46c62 24 141 76 201 136c9 8 17 17 25 27c28 79 61 162 80 179c7 6 12 6 16 5v0
c3 -1 7 -4 9 -11c5 -24 -36 -117 -88 -182c-2 -8 -5 -16 -8 -25c-10 -29 -20 -59 -28 -87c96 75 203 190 223 219c3 4 9 6 13 2zM242 232c-8 -15 -20 -40 -35 -77c3 5 6 11 9 16c14 27 22 47 26 61zM-51 -149c-7 13 -16 22 -27 27c-40 -139 -55 -233 -43 -261
c1 -2 3 -5 5 -5c3 -1 11 2 21 14c39 45 74 167 44 225zM92 -96c4 -1 7 -1 11 -2c1 3 2 7 3 10c-5 -3 -9 -5 -14 -8zM139 -148c-5 10 -13 18 -23 24c-14 -51 -25 -97 -31 -132c-8 -52 -4 -64 -2 -66c6 -2 16 4 25 16c29 33 55 112 31 158z" />
    <glyph glyph-name="g_l" unicode="gl" horiz-adv-x="573" 
d="M581 184c4 -3 6 -8 4 -13c-12 -23 -44 -72 -83 -112c-50 -50 -95 -69 -132 -57c-39 14 -54 65 -42 141v2c-9 -13 -17 -27 -26 -41c-42 -67 -84 -134 -124 -199c-9 -31 -19 -58 -26 -78c-56 -160 -125 -308 -164 -353c-6 -7 -16 -17 -26 -17c-1 0 -2 0 -3 1
c-8 1 -14 6 -17 13c-8 19 -3 63 98 240c35 62 76 130 120 202c30 94 52 188 51 248c0 25 -4 55 -23 58c-18 4 -37 -13 -55 -38c2 -8 3 -16 3 -25c0 -6 -5 -10 -10 -10s-10 5 -10 10c1 1 1 2 1 2c-11 -16 -22 -35 -33 -52c-35 -61 -66 -113 -101 -103c-20 5 -32 27 -33 58
c-1 59 38 137 103 157c22 7 43 4 59 -8c4 -3 8 -6 11 -10c21 26 44 43 69 39c10 -2 25 -9 33 -32c16 -47 -2 -143 -26 -231c28 46 57 92 86 138c19 29 37 58 54 87c18 69 49 152 87 232c38 78 90 167 123 181c11 5 18 2 22 -1c12 -8 10 -26 -6 -63c-12 -27 -31 -63 -59 -112
c-39 -69 -91 -154 -148 -245c-5 -19 -9 -36 -11 -53c-10 -64 1 -109 30 -119c65 -23 163 104 191 159c2 4 8 6 13 4zM440 416c-25 -52 -46 -104 -62 -153c39 64 75 122 105 173c27 48 47 84 59 112c16 33 17 45 17 49c-1 0 -3 -1 -6 -3c-25 -16 -71 -88 -113 -178zM68 116
c14 23 28 47 42 68c-2 4 -6 7 -10 10c-7 6 -15 8 -25 8c-5 0 -10 0 -16 -2c-60 -19 -90 -93 -89 -139c0 -10 2 -35 19 -39c20 -6 51 47 79 94zM104 -248c9 25 19 51 29 78c-28 -45 -53 -88 -76 -128c-95 -168 -101 -212 -97 -223c1 -1 1 -2 2 -2c2 1 17 8 56 81
c26 51 57 120 86 194z" />
    <glyph glyph-name="l_l" unicode="ll" horiz-adv-x="460" 
d="M470 184c5 -3 7 -8 4 -13c-11 -23 -43 -72 -83 -112c-49 -50 -95 -69 -131 -57c-32 11 -50 50 -51 101c-57 -70 -108 -105 -149 -105c-9 0 -17 1 -25 4c-38 15 -54 66 -42 141c11 78 49 187 99 291c38 79 91 168 123 181c11 4 18 0 22 -3c3 -2 5 -7 6 -12
c3 -33 -56 -147 -91 -212c-52 -96 -109 -188 -135 -219v0c-2 -10 -4 -19 -5 -29c-10 -64 1 -108 30 -119c35 -14 80 20 112 50c18 18 38 40 58 65c0 4 1 7 1 11c10 56 36 131 73 203c13 26 58 111 89 126c9 4 15 3 19 0c10 -5 11 -19 2 -47c-6 -20 -17 -47 -32 -78
c-29 -62 -78 -149 -134 -222c-6 -55 8 -98 36 -108c66 -23 163 104 191 159c2 4 8 6 13 4zM308 350c-32 -60 -56 -124 -69 -177c26 38 53 81 77 126c45 83 67 142 67 159c-10 -5 -38 -35 -75 -108zM217 593c-45 -32 -143 -219 -187 -373c29 44 70 113 107 182
c70 129 87 182 86 195c-1 0 -3 -1 -6 -4z" />
    <glyph glyph-name="m_m" unicode="mm" horiz-adv-x="1075" 
d="M1086 183c5 -3 6 -9 2 -14c-80 -106 -139 -156 -184 -156h-1c-32 0 -51 26 -66 47c-9 13 -18 26 -27 27c-12 2 -35 -14 -56 -28c-27 -19 -56 -39 -80 -35c-12 2 -27 10 -30 38c-2 16 1 37 3 55c1 14 4 35 1 41c-17 0 -44 -39 -89 -101c-8 -12 -18 -25 -29 -39
c-2 -4 -6 -5 -10 -4c-14 4 -10 23 -7 33c3 13 8 29 13 47c7 24 21 68 19 81c-10 -4 -31 -28 -47 -46c-39 -43 -84 -93 -123 -93v0c-43 0 -55 39 -64 70c-7 23 -13 44 -28 48c-33 7 -77 -44 -109 -81c-14 -17 -26 -31 -36 -39c-9 -7 -15 -5 -19 -3c-12 8 -8 30 6 93
c5 25 11 51 14 73c4 28 1 36 0 37c-10 1 -25 -11 -42 -37c-19 -26 -38 -64 -59 -103c-15 -29 -30 -59 -47 -87c-1 -3 -5 -5 -8 -5h-2c-10 2 -17 7 -21 16c-16 29 10 92 35 154c7 17 14 34 19 48c2 5 8 8 13 6s8 -7 6 -12c-6 -15 -13 -32 -20 -50c-20 -49 -47 -116 -36 -137
c0 -1 1 -2 2 -3c15 26 29 53 42 79c45 87 81 156 122 151c5 -1 9 -4 12 -8c12 -17 4 -59 -11 -126c-5 -22 -11 -50 -13 -65c8 7 18 18 28 30c37 44 84 98 128 88c27 -6 35 -34 43 -61c10 -35 18 -56 45 -56v0c31 0 76 50 109 86c0 0 50 65 73 50c14 -11 7 -42 -12 -104
c-3 -9 -7 -20 -9 -30c2 4 5 7 7 11c55 76 80 111 109 108v0c11 -2 16 -10 17 -26c0 -10 -1 -23 -3 -37c-4 -37 -6 -68 11 -70c17 -3 43 15 66 31c26 18 50 35 70 31c17 -2 28 -18 40 -34c14 -20 28 -39 51 -40v0c37 0 94 50 169 149c3 4 9 5 13 2z" />
    <glyph glyph-name="n_n" unicode="nn" horiz-adv-x="827" 
d="M826 182c3 4 9 4 13 1c4 -4 5 -10 1 -14c-88 -100 -150 -147 -193 -147c-4 0 -8 1 -11 1c-34 8 -45 48 -54 80c-5 17 -10 37 -17 41h-1c-16 11 -81 -27 -168 -119c-1 -2 -4 -3 -7 -3v0c-2 0 -5 1 -7 3c-10 10 -3 31 12 69c7 17 14 35 18 50c4 14 3 21 2 23
c-8 -4 -27 -25 -41 -40c-37 -42 -84 -94 -130 -94c-3 0 -6 0 -9 1c-51 7 -56 63 -59 101c-1 12 -2 34 -6 36c-2 2 -16 7 -69 -39c-35 -29 -75 -71 -109 -107c-2 -2 -4 -3 -7 -3v0c-3 0 -5 1 -7 3c-14 14 -10 51 -3 80c8 38 24 79 43 114c3 5 9 6 13 4c5 -3 7 -9 4 -14
c-18 -33 -33 -72 -41 -109c-5 -24 -6 -40 -5 -50c31 34 67 70 99 97c46 40 75 52 93 41c11 -8 13 -28 15 -52c3 -44 9 -78 42 -83c39 -6 87 48 122 87c28 32 42 47 56 47c0 0 6 0 12 -5c17 -17 2 -55 -14 -95c-4 -8 -8 -19 -11 -28c30 30 60 57 86 75c41 29 69 38 87 26
c13 -8 19 -28 25 -51c8 -29 17 -61 40 -67c34 -7 96 39 186 140z" />
    <glyph glyph-name="o_o" unicode="oo" horiz-adv-x="600" 
d="M600 183c4 3 10 2 14 -2c3 -4 2 -10 -2 -14c-37 -28 -130 -40 -190 -30c0 -3 0 -7 -1 -10c-7 -47 -31 -91 -61 -112c-13 -9 -27 -14 -41 -14c-4 0 -8 0 -12 1c-18 4 -30 19 -34 44c-7 45 11 115 44 146c-31 4 -111 6 -203 1c7 -13 10 -33 5 -66c-6 -44 -32 -90 -64 -112
c-17 -12 -34 -16 -50 -13c-30 6 -44 46 -35 101c10 67 52 132 109 125c5 0 9 -5 9 -11c-1 -5 -6 -9 -11 -8c-45 5 -79 -53 -88 -109c-7 -43 2 -75 20 -79c14 -3 26 4 35 10c27 19 50 60 56 99c3 22 5 58 -14 61c-5 1 -9 5 -9 10c1 5 5 9 10 10c57 4 119 5 169 4
c24 0 44 -2 58 -3c21 -3 29 -6 31 -13c1 -5 0 -11 -7 -15c-32 -18 -53 -91 -46 -134c2 -12 7 -26 19 -29c13 -2 25 1 38 10c26 18 47 58 53 99c0 4 1 8 1 11c-10 3 -18 7 -24 12c-11 9 -14 22 -7 34v1c10 17 22 15 27 13c12 -4 21 -22 23 -44c51 -10 143 -1 178 26zM391 168
c3 -2 6 -4 11 -6c-2 12 -6 19 -9 21c-1 -1 -2 -2 -4 -5c-2 -4 -2 -7 2 -10z" />
    <glyph glyph-name="o_m" unicode="om" horiz-adv-x="839" 
d="M850 183c5 -3 6 -9 2 -14c-71 -93 -120 -136 -157 -136c-2 0 -4 0 -5 1c-32 3 -47 35 -62 66c-13 26 -25 50 -44 53c-37 6 -79 -44 -110 -81c-14 -16 -26 -30 -36 -38c-8 -7 -15 -5 -18 -3c-13 8 -8 30 5 93c6 25 12 51 15 73c4 28 1 35 0 37c-7 1 -20 -6 -42 -39
c-19 -28 -39 -66 -61 -107c-15 -27 -30 -55 -45 -81c-2 -4 -6 -6 -10 -5c-7 1 -13 5 -16 11c-9 16 0 41 12 74c11 31 24 70 14 89c-13 24 -71 21 -132 17c-16 -1 -33 -2 -49 -3c9 -15 12 -37 8 -63c-6 -44 -32 -90 -64 -112c-13 -9 -26 -14 -39 -14c-4 0 -7 0 -11 1
c-30 6 -44 46 -35 101c10 67 51 132 109 125c5 0 9 -5 9 -11c-1 -3 -3 -6 -6 -7h1c25 -1 51 1 76 2c70 5 131 8 150 -27c14 -26 0 -68 -13 -104c-6 -19 -14 -41 -14 -53c13 23 25 46 37 69c49 90 87 161 124 157c6 -1 10 -4 13 -8c12 -17 3 -59 -11 -126
c-5 -22 -11 -50 -13 -65c8 7 17 18 27 30c35 42 80 95 128 88c29 -5 44 -35 58 -65c14 -27 26 -53 47 -55c29 -3 78 40 145 128c3 4 9 5 13 2zM100 130c3 25 0 45 -9 55c-2 2 -5 5 -9 5h-2c-5 0 -9 4 -10 10c0 4 3 7 6 9h-5c-42 0 -73 -55 -82 -109c-7 -43 2 -75 20 -79
c13 -3 26 4 35 10c27 19 50 60 56 99z" />
    <glyph glyph-name="o_n" unicode="on" horiz-adv-x="716" 
d="M715 182c4 4 10 4 14 1c4 -4 4 -10 1 -14c-81 -91 -142 -136 -185 -136c-6 0 -11 1 -16 2c-43 13 -50 73 -55 112c-1 9 -3 21 -4 25c-5 1 -21 1 -68 -40c-35 -29 -74 -71 -109 -107c-1 -2 -4 -3 -6 -3c-3 0 -6 1 -7 3c-11 10 -5 28 4 57s22 68 10 88
c-17 30 -76 26 -138 23c-15 -1 -30 -2 -46 -3c9 -15 12 -37 9 -63c-7 -44 -33 -90 -65 -112c-13 -9 -26 -14 -39 -14c-4 0 -7 0 -11 1c-30 6 -44 46 -35 101c11 67 52 132 109 125c6 0 10 -5 9 -11c0 -3 -3 -6 -6 -7h2c24 -1 48 1 72 2c72 4 133 8 156 -32
c16 -28 2 -70 -8 -104c-2 -6 -4 -12 -6 -19c30 32 63 65 92 90c47 40 75 52 93 41c7 -5 9 -16 11 -38c5 -35 11 -87 41 -96c24 -7 75 9 181 128zM99 130c4 25 0 45 -9 55c-2 2 -5 5 -8 5h-3c-5 0 -9 4 -9 10c0 4 2 7 6 9h-5c-43 0 -74 -55 -83 -109c-6 -43 2 -75 20 -79
c14 -3 27 4 35 10c28 19 51 60 56 99z" />
    <glyph glyph-name="o_u" unicode="ou" horiz-adv-x="680" 
d="M692 183c4 -4 5 -10 1 -14c-4 -5 -9 -11 -14 -19c-43 -56 -123 -161 -198 -148c-23 4 -40 18 -49 40c-9 24 -8 54 -2 84c-41 -64 -85 -126 -126 -126c-4 0 -9 1 -14 3c-31 12 -18 58 -6 101c8 26 16 55 12 69c-7 25 -73 22 -137 19c-16 -1 -32 -1 -48 -2
c9 -15 12 -37 8 -63c-6 -44 -33 -90 -64 -112c-17 -12 -34 -16 -50 -13c-31 6 -44 46 -36 101c11 67 52 132 110 125c5 0 9 -5 8 -11c0 -3 -2 -6 -5 -7h1c25 -1 50 1 75 2c78 3 146 6 157 -34c6 -19 -3 -49 -12 -79c-9 -32 -21 -72 -6 -78c14 -6 34 6 59 35s50 69 73 105
c11 18 22 35 32 49c2 4 4 6 6 9c3 4 9 4 13 1s5 -9 2 -13c-2 -3 -3 -5 -5 -8c-20 -32 -43 -107 -26 -150c6 -16 17 -25 34 -28c62 -10 138 88 178 141c6 8 11 14 15 19c3 5 9 5 14 2zM100 130c3 25 0 45 -10 55c-2 2 -4 5 -8 5h-2c-6 0 -10 4 -10 10c0 4 2 7 6 9h-5
c-42 0 -74 -55 -82 -109c-7 -43 1 -75 20 -79c13 -3 26 4 34 10c28 19 51 60 57 99z" />
    <glyph glyph-name="o_m_m" unicode="omm" horiz-adv-x="1375" 
d="M1386 183c4 -3 5 -9 2 -14c-81 -106 -140 -156 -184 -156h-1c-33 0 -51 26 -66 47c-9 13 -18 26 -27 27c-13 2 -36 -14 -56 -28c-28 -19 -56 -39 -81 -35c-12 2 -26 10 -29 38c-2 16 0 37 2 55c2 13 4 35 2 41c-17 0 -43 -38 -83 -94c-10 -14 -22 -30 -34 -48
c-3 -4 -9 -5 -14 -2c-10 7 -6 22 9 74c5 20 11 40 15 58s4 26 3 29c-9 -5 -31 -29 -46 -46c-40 -43 -84 -93 -124 -93v0c-43 0 -54 39 -63 70c-7 23 -13 44 -29 48c-33 7 -76 -44 -109 -81c-14 -17 -26 -31 -36 -39c-8 -7 -15 -5 -19 -3c-12 8 -8 30 6 93c6 25 12 51 15 73
c4 28 1 36 0 37c-11 1 -25 -11 -43 -37s-37 -64 -58 -103c-15 -29 -31 -59 -47 -87c-2 -4 -6 -6 -10 -5c-7 1 -13 5 -16 11c-9 15 0 42 12 75c10 30 23 68 13 81c-18 25 -84 23 -148 22c-10 0 -21 -1 -31 -1c9 -15 12 -37 8 -63c-6 -44 -33 -90 -64 -112
c-13 -9 -27 -14 -40 -14c-3 0 -7 0 -10 1c-30 6 -44 46 -35 101c10 67 51 132 109 125c5 0 9 -5 8 -11c0 -3 -2 -6 -5 -7h1c20 -1 39 0 58 0c76 2 141 4 165 -29c16 -22 2 -61 -11 -99c-6 -18 -14 -41 -14 -53c14 24 27 49 40 74c45 87 81 156 121 151c5 -1 10 -4 13 -8
c12 -17 3 -59 -12 -126c-4 -21 -11 -50 -12 -65c8 7 17 18 28 30c37 44 83 98 128 88c26 -6 34 -34 42 -61c11 -35 19 -56 45 -56v0c31 0 76 50 109 86c35 39 57 63 73 51l1 -1c14 -11 7 -44 -13 -110c-2 -7 -4 -14 -6 -22c4 5 7 10 11 15c51 72 75 105 102 102h1
c10 -2 16 -10 16 -26c1 -10 -1 -23 -2 -37c-5 -37 -7 -68 10 -70c17 -3 44 15 67 31c25 18 50 35 70 31c17 -2 28 -18 40 -34c13 -20 28 -39 50 -40h1c37 0 94 50 168 149c4 4 10 5 14 2zM100 130c3 25 0 45 -9 55c-2 2 -5 5 -9 5h-2c-5 0 -10 4 -10 10c0 4 3 7 6 9h-5
c-42 0 -73 -55 -82 -109c-7 -43 1 -75 20 -79c13 -3 26 4 35 10c27 19 50 60 56 99z" />
    <glyph glyph-name="o_n_n" unicode="onn" horiz-adv-x="1129" 
d="M1128 182c3 4 9 4 13 1c4 -4 5 -10 1 -14c-88 -100 -150 -147 -192 -147c-5 0 -8 1 -12 1c-34 8 -45 48 -54 80c-5 17 -10 37 -17 41v0c-17 11 -82 -27 -169 -119c-1 -2 -4 -3 -6 -3c-3 0 -6 1 -7 3c-12 11 -4 35 12 81c7 19 18 49 18 60c-9 -4 -27 -24 -41 -39
c-37 -39 -88 -93 -137 -93h-5c-54 4 -55 62 -56 100c-1 12 -1 34 -5 37c-2 2 -16 7 -69 -39c-35 -29 -74 -71 -109 -107c-1 -2 -4 -3 -7 -3c-2 0 -5 1 -7 3c-10 10 -4 28 5 57s21 68 10 88c-17 30 -76 26 -138 23c-15 -1 -30 -2 -46 -3c9 -15 12 -37 8 -63
c-6 -44 -32 -90 -64 -112c-13 -9 -26 -14 -39 -14c-4 0 -7 0 -11 1c-30 6 -44 46 -35 101c11 67 52 132 109 125c6 0 9 -5 9 -11c-1 -3 -3 -6 -6 -7h2c24 -1 48 1 72 2c71 4 133 8 156 -32c16 -28 2 -70 -8 -104c-2 -5 -4 -12 -6 -19c30 32 63 65 92 90c47 40 75 53 93 41
c12 -8 12 -28 13 -53c1 -45 5 -79 39 -81c41 -3 90 49 126 87c13 14 25 26 35 35c5 4 22 18 34 6v0c11 -11 3 -36 -13 -82c-4 -13 -11 -30 -14 -43c31 31 62 58 88 77c41 29 70 38 87 26c14 -8 19 -28 26 -51c8 -29 17 -61 39 -67c34 -7 96 39 186 140zM99 130
c4 25 0 45 -9 55c-2 2 -5 5 -8 5h-3c-5 0 -9 4 -9 10c0 4 2 7 6 9h-6c-42 0 -73 -55 -82 -109c-7 -43 2 -75 20 -79c14 -3 27 4 35 10c27 19 50 60 56 99z" />
    <glyph glyph-name="r_r" unicode="rr" horiz-adv-x="588" 
d="M599 184c5 -3 6 -9 3 -14c-2 -2 -34 -51 -77 -97c-48 -51 -89 -76 -123 -76c-8 0 -16 1 -24 5c-32 14 -24 52 -18 82c3 14 6 29 4 39c-1 14 -15 21 -38 31c-7 3 -14 7 -21 10c-6 -9 -12 -19 -18 -28c-41 -63 -84 -118 -121 -154c-36 -37 -67 -55 -91 -55
c-8 0 -15 2 -21 6c-43 27 -23 75 -6 117c9 23 19 46 18 64c-1 25 -18 32 -37 40c-15 7 -30 13 -38 28c-20 41 35 96 41 103c4 3 10 3 14 0c4 -4 4 -10 0 -14c-14 -14 -49 -56 -37 -80c4 -9 15 -13 27 -19c22 -9 48 -20 50 -57c1 -22 -10 -48 -20 -72c-19 -47 -29 -76 -2 -93
c13 -9 34 2 48 12c43 28 102 98 159 186c6 9 12 18 17 27c-9 8 -17 18 -20 33c-8 33 39 85 67 104c8 5 20 12 29 6c10 -6 11 -20 -12 -68c-10 -21 -22 -44 -37 -69l18 -9c22 -9 47 -20 51 -47c2 -13 -2 -29 -5 -45c-6 -32 -9 -53 7 -60c60 -26 164 107 199 161
c3 4 10 6 14 3zM299 192c31 53 48 91 52 107c-11 -6 -32 -24 -48 -46c-12 -17 -18 -32 -16 -41c2 -8 6 -15 12 -20z" />
    <glyph glyph-name="r_t" unicode="rt" horiz-adv-x="422" 
d="M722 347c2 -5 -1 -11 -7 -12h-2c-4 0 -7 2 -9 5c-6 5 -47 17 -290 19c-6 -12 -12 -23 -18 -35c-20 -55 -41 -115 -61 -177c-63 -191 -128 -423 -124 -501c0 -16 4 -19 4 -19v0c6 0 10 -5 10 -10c0 -6 -4 -10 -10 -10c-4 0 -13 2 -19 13c-4 8 -16 33 18 179
c19 81 48 185 85 302c14 42 28 86 43 129c-60 -100 -150 -237 -220 -285c-27 -19 -50 -23 -68 -12c-44 27 -24 75 -6 117c9 23 19 46 18 64c-1 25 -18 32 -37 41c-15 6 -30 12 -38 27c-20 41 35 97 41 103c4 3 10 3 14 0c4 -4 4 -10 0 -14c-14 -14 -49 -56 -37 -80
c4 -9 15 -13 27 -18c22 -10 48 -21 50 -58c1 -22 -10 -48 -20 -72c-19 -47 -29 -77 -2 -93c10 -6 24 -4 41 7c56 35 144 150 241 318c11 20 22 39 32 57c3 9 6 18 10 27h-46c-169 0 -336 -5 -338 -5c-5 -1 -10 4 -10 9s4 10 9 10c2 0 177 5 351 6c14 0 28 0 41 -1
c35 94 66 167 82 187c2 3 9 11 17 9v0c5 -2 8 -5 9 -10s3 -18 -38 -104c-12 -25 -25 -53 -40 -82c70 0 128 -2 173 -4c110 -6 121 -16 124 -27z" />
    <glyph glyph-name="i_n" unicode="in" horiz-adv-x="639" 
d="M652 183c4 -4 4 -10 0 -14c-93 -105 -156 -148 -198 -135c-38 11 -46 63 -52 101c-2 14 -5 33 -8 37c-3 1 -17 5 -69 -40c-35 -29 -75 -70 -109 -107c-2 -2 -4 -3 -7 -3c-2 0 -5 1 -7 3c-11 11 -2 33 15 74c6 16 13 32 17 45c4 11 4 17 4 20c-9 -7 -26 -26 -40 -41
c-46 -52 -109 -122 -161 -122c-4 0 -8 0 -12 1c-21 5 -36 17 -44 37c-22 52 13 140 35 174c3 4 9 5 14 2c4 -3 5 -9 2 -13c-21 -32 -51 -113 -33 -156c5 -13 15 -22 30 -25c3 0 5 -1 8 -1c44 0 105 69 147 116c13 14 25 27 34 36c7 7 20 19 30 12c20 -13 5 -50 -13 -93
c-4 -9 -9 -21 -13 -31c91 94 153 147 183 128c10 -7 12 -24 17 -49c5 -34 12 -79 38 -87c23 -6 72 11 178 130c3 4 10 4 14 1zM29 264v1c-2 3 -1 7 1 9c1 9 4 18 11 25c4 3 11 7 21 5c7 -1 21 -3 22 -14s-9 -17 -35 -28v-1c0 -5 -4 -10 -10 -10v0c-5 0 -10 4 -10 9v4z" />
    <glyph glyph-name="i_m" unicode="im" horiz-adv-x="760" 
d="M772 183c5 -3 5 -9 2 -14c-71 -93 -120 -136 -157 -136c-2 0 -4 0 -5 1c-32 3 -47 35 -62 66c-13 26 -25 50 -44 53c-37 6 -80 -44 -110 -81c-14 -16 -26 -30 -36 -38c-8 -7 -15 -5 -18 -3c-13 8 -9 30 5 93c6 25 12 51 15 73c4 28 1 35 0 37c-7 1 -20 -6 -42 -39
c-19 -28 -40 -66 -61 -107c-15 -27 -30 -55 -45 -81c-2 -4 -6 -6 -10 -5c-7 1 -13 5 -16 11c-9 17 2 47 21 93c8 19 20 48 20 59c-9 -6 -29 -29 -46 -49c-44 -51 -98 -115 -148 -115c-4 0 -7 0 -10 1c-21 3 -37 15 -45 34c-21 50 11 140 35 176c3 5 9 6 14 3
c4 -3 6 -9 3 -13c-21 -32 -52 -116 -34 -158c6 -13 16 -20 30 -23c42 -7 99 60 140 108c15 17 28 32 39 43c6 6 23 22 35 11c0 0 1 0 1 -1c13 -12 3 -38 -16 -83c-9 -22 -22 -54 -23 -70c13 23 25 46 37 68c49 90 87 161 124 157c5 -1 10 -4 13 -8c12 -17 3 -59 -12 -126
c-4 -22 -11 -50 -12 -65c8 7 17 18 27 30c35 42 80 95 128 88c29 -5 44 -35 58 -65c14 -27 26 -53 47 -55c29 -3 78 40 145 128c3 4 9 5 13 2zM28 264v1c-1 3 -1 7 1 9c2 8 4 18 11 24c4 4 11 8 22 6c7 -1 20 -4 21 -15c1 -10 -8 -16 -35 -27v-1c0 -5 -4 -10 -9 -10h-1
c-5 0 -9 4 -10 9v4z" />
    <glyph glyph-name="s_s" unicode="ss" horiz-adv-x="431" 
d="M442 180c3 -5 1 -11 -4 -13c-61 -29 -120 -65 -171 -105c37 -71 6 -152 -43 -202c-28 -28 -58 -44 -83 -44c-8 0 -16 2 -23 6c-16 9 -24 25 -24 45c2 39 37 96 97 154c15 16 32 31 50 45c-14 24 -28 51 -31 79c-3 16 -2 32 3 46c-39 -30 -90 -72 -136 -114
c-7 -6 -14 -13 -20 -19c20 -45 -4 -92 -32 -121c-22 -21 -52 -38 -71 -27c-8 5 -13 13 -13 23c-1 25 30 69 92 129c-15 25 -32 61 -33 100c-2 46 16 85 54 116c4 3 10 2 14 -2c3 -4 3 -10 -2 -13c-73 -60 -45 -140 -19 -187c5 5 11 10 16 15c66 61 141 120 180 146
c5 3 10 2 13 -2c4 -4 3 -9 0 -13c-43 -43 -32 -87 1 -143c52 40 111 77 172 106c5 2 11 0 13 -5zM11 -49c22 22 41 58 31 92c-76 -74 -82 -102 -81 -110c0 -3 1 -5 3 -6c6 -4 26 3 47 24zM210 -126c43 44 71 114 41 175c-16 -13 -32 -28 -47 -42c-55 -54 -89 -107 -90 -141
c-1 -13 4 -22 13 -27c19 -11 53 4 83 35z" />
    <glyph glyph-name="s_t" unicode="st" horiz-adv-x="375" 
d="M667 347c1 -6 -2 -11 -7 -12c-1 -1 -2 -1 -3 -1c-3 0 -7 2 -8 6c-7 5 -48 17 -296 19c-24 -64 -49 -137 -73 -212c-63 -191 -129 -423 -125 -501c1 -16 4 -20 5 -20v0c5 0 10 -4 10 -9c0 -6 -5 -10 -10 -10s-14 1 -19 13c-4 8 -16 33 18 179c18 81 48 185 85 302
c27 86 59 178 88 258h-5c-21 -30 -43 -62 -67 -95c-61 -88 -124 -179 -172 -255c-2 -4 -4 -8 -7 -12c16 -71 -1 -138 -28 -164c-14 -13 -30 -15 -45 -6c-4 3 -9 8 -11 19c-5 27 19 80 63 154c-5 20 -13 40 -25 60c-15 24 -33 62 -35 102c-2 46 17 85 55 116c4 3 10 3 13 -2
c4 -4 3 -10 -1 -13c-77 -63 -43 -148 -15 -193c9 -16 17 -32 22 -48c43 70 102 155 170 253c20 28 40 56 59 84h-16c-170 -1 -337 -6 -338 -6c-6 0 -10 4 -10 10c-1 5 4 10 9 10c2 0 177 5 351 5h17c20 30 39 58 56 83c21 52 39 90 50 104c2 3 8 10 17 8c5 -1 8 -6 7 -11
c-3 -20 -24 -59 -57 -110c-3 -8 -7 -18 -11 -28c-6 -14 -12 -30 -18 -46c74 0 136 -2 183 -4c109 -6 121 -17 124 -27zM40 -153c17 17 34 67 26 124c-45 -77 -52 -109 -50 -122c1 -4 2 -5 3 -6c3 -1 10 -6 21 4z" />
    <glyph glyph-name="w_n" unicode="wn" horiz-adv-x="861" 
d="M860 182c4 4 10 4 14 1c4 -4 4 -10 1 -14c-81 -91 -142 -136 -185 -136c-6 0 -11 1 -16 2c-42 13 -50 73 -55 112c-1 9 -2 21 -4 25c-4 1 -20 1 -68 -40c-34 -29 -74 -71 -108 -107c-2 -2 -5 -3 -7 -3c-3 0 -5 1 -7 3c-10 9 -5 26 3 52c9 30 21 71 6 93
c-23 36 -119 30 -172 22c-9 -33 -54 -184 -111 -190c-11 -1 -21 2 -29 9c-25 23 -27 87 -26 159c-10 -17 -19 -34 -29 -50c-45 -80 -68 -118 -89 -118h-5c-5 2 -11 6 -15 15c-2 7 -10 29 21 114c16 43 34 82 38 88c3 4 9 5 13 2c5 -2 6 -9 3 -13c-8 -14 -68 -151 -56 -184
c0 -2 1 -2 1 -3c3 1 10 5 27 31c13 20 29 48 45 77c16 28 31 56 48 83c3 4 7 5 11 4c5 -1 7 -5 7 -9c-1 -72 -4 -160 19 -182c4 -3 8 -4 14 -4c34 4 77 111 96 182c1 4 4 6 8 7c26 5 161 26 198 -29c19 -30 6 -76 -4 -109c-1 -5 -3 -9 -4 -14c30 31 62 64 92 89
c46 40 74 52 92 41c7 -5 9 -16 12 -38c4 -35 11 -87 41 -96c24 -7 74 9 180 128z" />
    <glyph glyph-name="w_u" unicode="wu" horiz-adv-x="816" 
d="M828 183c4 -4 5 -10 1 -14c-4 -5 -9 -11 -14 -19c-43 -56 -123 -161 -197 -148c-24 4 -41 18 -49 40c-9 24 -9 54 -3 84c-41 -64 -85 -126 -125 -126c-5 0 -10 1 -15 3c-32 13 -18 54 -4 94c9 28 20 60 14 79c-7 27 -74 33 -174 16c-29 -91 -65 -185 -111 -190
c-11 -1 -21 2 -29 9c-25 23 -27 87 -26 159c-10 -17 -20 -34 -29 -50c-49 -87 -72 -125 -94 -118c-5 2 -11 6 -15 15c-2 7 -10 29 21 114c16 43 34 82 38 88c3 4 9 5 13 2c5 -2 6 -9 3 -13c-9 -13 -69 -151 -56 -184c0 -2 1 -2 1 -3c2 1 10 5 26 31c14 20 29 48 46 77
c15 28 31 56 48 83c2 4 7 5 11 4s7 -5 7 -9c-2 -72 -4 -160 19 -182c4 -3 8 -4 14 -4c40 5 81 135 95 178l1 4c1 4 4 6 7 7c85 15 189 22 203 -28c7 -26 -4 -59 -15 -91c-13 -38 -21 -65 -7 -70c15 -6 34 6 60 35c24 29 49 69 72 105c11 18 22 35 32 49c2 4 4 6 6 9
c3 4 9 4 13 1c5 -3 6 -9 2 -13c-1 -3 -3 -5 -5 -8c-20 -32 -42 -107 -26 -150c6 -16 17 -25 34 -28c63 -10 138 88 178 141c6 8 11 14 15 19s10 5 14 2z" />
    <glyph glyph-name="y_l" unicode="yl" horiz-adv-x="557" 
d="M564 184c5 -3 7 -8 4 -13c-12 -23 -43 -72 -83 -112c-49 -50 -95 -69 -131 -57c-35 13 -51 55 -46 119c-27 -48 -53 -97 -77 -146c-72 -143 -132 -281 -169 -363c-10 -22 -17 -40 -23 -52c-3 -7 -5 -11 -7 -15c-2 -5 -5 -10 -11 -10h-1c-3 0 -7 2 -8 6
c-21 41 34 192 122 418c27 71 54 139 72 192c22 65 24 86 24 93c-4 -1 -12 -6 -25 -21c-14 -15 -29 -36 -46 -58c-49 -64 -99 -130 -141 -121c-12 2 -21 10 -27 22c-15 33 -2 98 19 142c3 5 9 7 13 4c5 -2 7 -8 5 -13c-19 -39 -32 -99 -19 -125c3 -6 7 -10 13 -11
c30 -7 83 63 122 114c42 56 67 88 88 88c6 0 10 -3 13 -7c7 -10 6 -33 -20 -110c-18 -54 -45 -123 -73 -197c-34 -88 -70 -179 -94 -255c-18 -55 -27 -90 -30 -113c5 11 10 23 16 37c37 83 98 220 169 364c33 65 68 130 104 193c16 73 50 165 96 257c37 75 92 166 123 180
c9 4 15 1 18 -1c28 -19 -8 -86 -128 -288c-29 -49 -60 -102 -90 -155c-3 -10 -4 -20 -6 -30c-10 -64 1 -109 30 -119c65 -23 163 104 191 159c2 4 8 6 13 4zM436 435c-33 -65 -61 -132 -80 -191c18 31 36 61 53 91c42 71 79 132 103 180c31 59 32 76 32 81
c-4 -2 -16 -10 -41 -45c-20 -29 -44 -71 -67 -116z" />
    <glyph glyph-name="z_z" unicode="zz" horiz-adv-x="511" 
d="M524 181c4 -4 3 -10 -1 -13c-70 -57 -131 -109 -182 -157c20 -14 33 -31 39 -52c17 -58 -28 -126 -76 -170c-37 -35 -87 -65 -125 -65c-8 0 -15 2 -21 4c-14 6 -23 16 -26 31c-4 31 21 80 76 144c27 32 60 66 100 104c-18 9 -41 16 -67 20c-4 1 -7 3 -8 7c-1 3 0 7 2 9
c6 7 12 13 18 20c35 37 75 80 64 95c-1 2 -2 4 -6 4c-20 2 -71 -22 -203 -148c-3 -3 -7 -7 -11 -10c17 -14 27 -31 31 -49c8 -48 -32 -97 -76 -126c-30 -19 -70 -34 -94 -17c-10 6 -15 15 -16 25c-2 33 40 82 125 164c-19 11 -43 20 -72 26c-4 1 -6 4 -7 7s-1 7 2 9
c30 33 50 57 64 76c23 32 18 39 18 39c0 1 -1 2 -1 2c0 1 -2 5 -20 7c-12 1 -26 0 -37 -1c-5 0 -9 -1 -12 -1c-5 0 -10 5 -10 10c0 6 5 10 10 10c2 0 6 0 11 1c33 2 66 2 76 -17c12 -20 -8 -55 -74 -127c27 -7 49 -16 66 -26c5 4 9 8 14 12c71 68 171 158 218 153
c8 0 16 -5 20 -11c20 -29 -20 -72 -66 -121l-6 -6c25 -5 45 -12 63 -21c52 48 114 102 186 161c5 3 11 3 14 -2zM108 -49c-2 15 -11 28 -25 39c-66 -63 -123 -124 -121 -151c0 -5 2 -8 7 -11c13 -9 43 -2 72 18c39 24 74 67 67 105zM362 -47c-6 18 -17 32 -36 44
c-41 -39 -76 -74 -103 -106c-67 -79 -74 -115 -71 -129c1 -8 5 -13 13 -16c26 -10 79 14 126 57c44 40 85 101 71 150z" />
    <glyph glyph-name="t_t" unicode="tt" horiz-adv-x="326" 
d="M504 363c8 -2 12 -8 11 -14c0 -5 -5 -11 -14 -12c-76 -4 -137 1 -181 14c-7 2 -13 4 -18 6c-42 1 -87 2 -133 2c-30 -73 -57 -152 -67 -218c-10 -65 1 -110 30 -120c65 -23 163 104 191 159c2 5 8 7 13 4c5 -2 7 -8 4 -13c-12 -23 -43 -72 -83 -112s-77 -60 -109 -60
c-8 0 -15 1 -22 4c-39 13 -55 65 -43 141c11 69 38 149 65 215h-55c-9 -17 -19 -34 -29 -51c-18 -50 -37 -105 -55 -161c-63 -191 -128 -423 -124 -501c0 -16 4 -19 4 -19v0c6 0 10 -5 10 -10c0 -6 -4 -10 -10 -10c-4 0 -13 2 -19 13c-4 8 -16 33 18 179
c19 81 48 185 85 302c16 50 34 102 51 153c-3 -1 -6 -1 -9 1c-4 4 -5 10 -2 14c11 14 22 30 33 48c5 14 11 28 16 42c-196 -1 -380 -5 -384 -5c-5 -1 -10 4 -10 9s4 10 10 10c14 0 198 5 391 6c35 93 66 166 82 186c2 3 8 10 16 9c4 -1 7 -3 9 -6c2 -4 4 -10 -9 -48
c-9 -23 -21 -52 -34 -82c-7 -14 -17 -35 -29 -59h52c11 26 22 50 31 69c21 43 42 85 61 118c30 51 36 51 41 51c4 0 8 -2 9 -5c4 -7 1 -11 -9 -28c-20 -34 -68 -113 -36 -167c10 -17 28 -30 52 -40c90 -3 164 -7 199 -14zM177 378c30 0 59 0 87 -1c-12 9 -21 19 -28 30
c-13 22 -16 47 -12 72c-15 -30 -31 -65 -47 -101z" />
    <glyph glyph-name=".notdef" horiz-adv-x="500" 
 />
    <glyph glyph-name="space" unicode=" " horiz-adv-x="250" 
 />
    <glyph glyph-name="space" unicode="&#xa0;" horiz-adv-x="250" 
 />
    <glyph glyph-name="exclam" unicode="!" horiz-adv-x="247" 
d="M218 534c5 -2 8 -7 6 -12c-67 -187 -121 -360 -120 -380c2 -5 0 -10 -4 -12c-2 -1 -3 -2 -5 -2c-4 0 -7 2 -9 5c-3 6 -7 14 35 148c23 70 54 163 85 247c1 5 7 8 12 6zM72 35c5 -1 23 -4 23 -19c1 -11 -9 -19 -35 -26c0 -1 0 -1 1 -1c0 -7 -6 -13 -13 -14v0
c-7 0 -12 6 -13 12v2c-2 2 -3 4 -3 6c-2 6 1 11 5 14c2 7 5 14 11 19c4 4 12 9 24 7z" />
    <glyph glyph-name="quotedbl" unicode="&#x22;" horiz-adv-x="164" 
d="M107 534c5 -2 8 -7 6 -12l-34 -108c-1 -4 -5 -7 -9 -7h-3c-5 2 -8 8 -7 13l35 108c1 5 7 8 12 6zM155 534c6 -2 8 -7 7 -12l-34 -108c-2 -4 -6 -7 -10 -7h-3c-5 2 -8 8 -6 13l34 108c2 5 7 8 12 6z" />
    <glyph glyph-name="numbersign" unicode="#" horiz-adv-x="362" 
d="M272 120c5 -1 9 -5 8 -11c-1 -5 -5 -9 -11 -8c-16 2 -31 3 -46 4c-8 -27 -16 -53 -22 -77c1 0 2 -1 3 -1c4 -3 6 -9 3 -13c-4 -7 -17 -38 -21 -50c-1 -4 -5 -7 -9 -7h-2c-5 1 -9 6 -8 11c8 38 20 86 36 137c-32 1 -64 -1 -96 -5c-13 -39 -25 -76 -35 -107
c-1 -4 -5 -7 -9 -7h-3c-5 2 -8 7 -6 13c7 24 19 60 31 99c-14 -2 -28 -4 -43 -6h-2c-4 0 -9 4 -9 8c-1 6 3 11 8 11c19 3 36 5 53 7c7 22 14 44 22 65c-16 -2 -32 -4 -49 -7h-2c-5 0 -9 3 -10 8s3 10 8 11c21 4 41 7 59 9c25 73 47 136 51 142c3 5 9 6 14 3c4 -3 5 -9 2 -13
c-3 -7 -22 -62 -45 -130c33 2 64 2 94 0c24 66 50 130 76 179c2 5 8 7 13 4s7 -8 4 -13c-24 -47 -50 -108 -73 -171c14 -1 28 -3 42 -5c6 0 10 -5 9 -10c-1 -6 -6 -10 -11 -9c-16 2 -31 4 -46 5c-8 -21 -14 -42 -21 -62c14 -1 28 -2 43 -4zM209 125c6 20 13 41 20 62
c-29 2 -60 1 -94 -2c-7 -21 -14 -43 -22 -64c33 3 64 5 96 4z" />
    <glyph glyph-name="dollar" unicode="$" horiz-adv-x="240" 
d="M208 371c17 -23 12 -65 -14 -124c-2 -5 -8 -7 -13 -5s-7 8 -5 13c31 68 23 95 16 105c-4 6 -10 9 -16 10l-68 -202c21 -36 39 -79 26 -138c-12 -56 -58 -89 -98 -97c-2 0 -5 -1 -7 -1l-15 -44c-1 -4 -5 -6 -9 -6h-3c-5 2 -8 7 -6 13l12 36c-19 2 -35 11 -45 25
c-3 4 -2 10 2 13c5 3 11 2 14 -2c7 -10 20 -16 35 -16l73 215c-3 5 -6 9 -9 14c-25 40 -51 82 -26 139c15 34 63 67 104 71c2 0 4 0 6 1l14 40c2 5 7 8 12 6s8 -7 6 -12l-12 -37c11 -2 20 -8 26 -17zM115 34c10 45 0 79 -15 109l-64 -190c33 8 69 36 79 81zM95 190l61 180
c-34 -5 -74 -32 -86 -59c-21 -47 0 -81 25 -121v0z" />
    <glyph glyph-name="percent" unicode="%" horiz-adv-x="290" 
d="M332 412c4 -4 4 -10 0 -14l-10 -10c-30 -32 -102 -131 -171 -232c-109 -162 -139 -227 -140 -242c3 -2 5 -6 4 -10c-2 -4 -5 -7 -10 -7h-2c-6 2 -9 6 -11 11c-2 9 1 29 41 98c25 43 60 98 102 160s90 130 127 179c-62 -31 -119 -25 -154 -21c-2 0 -4 0 -5 1
c1 -1 2 -1 3 -2c4 1 9 -2 11 -6v-2c8 -7 13 -18 13 -30c2 -31 -15 -70 -37 -88c-12 -9 -24 -12 -35 -9c-15 5 -23 17 -24 35c-1 29 17 66 46 87c-7 3 -14 10 -14 19c1 6 3 10 6 12c7 6 19 5 38 2c43 -4 122 -13 198 59c5 5 8 8 11 10c4 4 10 3 13 0zM103 301
c-32 -16 -50 -54 -49 -77c0 -9 3 -15 9 -17c5 -1 11 0 18 5c17 14 31 48 30 72c0 7 -3 13 -8 17zM219 94c19 -11 9 -55 1 -77c-13 -32 -30 -51 -49 -51c-2 0 -3 0 -5 1c-13 2 -22 12 -25 27c-4 24 6 59 29 83c4 6 10 12 17 16c11 6 22 7 32 1zM193 5c16 28 21 66 16 72
c-2 1 -4 2 -8 1c-1 -1 -2 -3 -4 -4c-4 -2 -8 -6 -12 -9c-1 -3 -2 -6 -2 -7c0 -6 -5 -10 -10 -10h-1c-10 -17 -14 -36 -12 -50c2 -11 8 -12 9 -12c7 -1 16 6 24 19z" />
    <glyph glyph-name="ampersand" unicode="&#x26;" horiz-adv-x="528" 
d="M379 97c6 -1 9 -5 9 -11c-5 -32 -66 -93 -134 -129c9 -52 23 -91 37 -105c4 -4 7 -6 10 -6c6 0 10 -5 10 -10c0 -6 -4 -10 -10 -10c-8 0 -17 4 -24 12c-17 18 -32 58 -41 110c-10 -4 -19 -8 -29 -11c-52 -17 -94 -11 -121 18c-21 23 -30 50 -25 81c5 27 18 56 41 90
c38 56 98 114 148 162c23 65 56 109 81 123c12 7 21 6 26 3c6 -3 10 -8 11 -14c4 -21 -28 -53 -94 -117c-2 -2 -5 -4 -7 -6c-12 -35 -20 -77 -23 -123c-3 -65 0 -126 7 -176c63 35 115 90 117 111c1 5 6 9 11 8zM337 392c-15 -11 -35 -35 -52 -71c16 16 30 30 41 42
c21 23 23 31 23 33v0c-1 0 -1 1 -1 1v0c-2 0 -5 -1 -11 -5zM225 155c1 34 7 66 14 95c-44 -42 -90 -90 -121 -135c-44 -65 -50 -113 -18 -146c22 -24 56 -28 101 -14c11 4 21 8 32 13c-8 55 -12 121 -8 187z" />
    <glyph glyph-name="quotesingle" unicode="'" horiz-adv-x="119" 
d="M109 534c5 -1 8 -7 6 -12l-34 -108c-2 -4 -5 -7 -10 -7c-1 0 -2 0 -3 1c-5 1 -8 7 -6 12l34 108c2 5 7 8 13 6z" />
    <glyph glyph-name="parenleft" unicode="(" horiz-adv-x="226" 
d="M239 466c-146 -168 -229 -415 -211 -630c0 -5 -4 -10 -9 -10h-1c-5 0 -9 3 -10 9c-18 220 67 472 217 644c3 4 9 4 13 1c5 -4 5 -10 1 -14z" />
    <glyph glyph-name="parenright" unicode=")" horiz-adv-x="210" 
d="M174 473c19 -220 -66 -473 -216 -644c-2 -2 -5 -3 -8 -3c-2 0 -4 0 -6 2c-4 4 -4 10 -1 14c147 168 230 415 212 630c-1 5 3 10 9 10c5 1 10 -3 10 -9z" />
    <glyph glyph-name="asterisk" unicode="*" horiz-adv-x="191" 
d="M173 495c5 3 11 1 13 -4c3 -4 1 -10 -4 -13c-9 -5 -17 -9 -23 -12c-4 -2 -7 -4 -11 -6c11 -2 20 -4 27 -5c5 -1 9 -6 8 -11s-5 -9 -10 -9h-1c-9 2 -20 4 -33 7c5 -13 10 -26 13 -38c2 -5 -1 -11 -6 -12c-1 -1 -2 -1 -3 -1c-4 0 -8 3 -9 7c-4 11 -8 24 -13 37
c-1 -1 -1 -3 -2 -4c-6 -12 -11 -24 -18 -37c-2 -4 -5 -6 -9 -6c-1 0 -3 1 -4 1c-5 3 -7 9 -5 14c5 9 10 18 14 27c-6 -4 -13 -9 -21 -14c-1 -1 -3 -2 -5 -2c-3 0 -6 2 -8 4c-3 5 -2 11 2 14c13 9 23 15 31 21c-9 2 -17 3 -22 4c-5 0 -9 5 -9 10c1 6 5 10 11 9
c6 0 18 -3 31 -6c-4 11 -8 20 -12 28c-3 5 -1 11 4 13c5 3 11 1 13 -4c4 -7 7 -15 11 -24c5 10 12 22 19 35c3 4 9 6 13 3c5 -3 7 -8 4 -13c-6 -10 -11 -20 -16 -28l6 3c7 3 15 8 24 12z" />
    <glyph glyph-name="plus" unicode="+" horiz-adv-x="281" 
d="M231 171c6 0 10 -5 9 -10c0 -5 -4 -9 -9 -9h-1c-22 1 -51 1 -81 2l-35 -101c-2 -4 -5 -6 -9 -6h-4c-5 2 -7 8 -6 13l33 94h-88c-5 0 -10 4 -10 10c0 5 5 9 10 9h95l27 79c2 5 8 8 13 6s7 -7 6 -12l-26 -73c28 0 55 -1 76 -2z" />
    <glyph glyph-name="comma" unicode="," horiz-adv-x="186" 
d="M54 22c6 -26 1 -56 -15 -80c-15 -22 -35 -36 -58 -40h-1c-5 0 -9 3 -10 8s3 11 8 11c17 3 33 15 44 32c13 20 18 44 13 64c-2 5 2 11 7 12s10 -2 12 -7z" />
    <glyph glyph-name="period" unicode="." horiz-adv-x="202" 
d="M75 16c1 -11 -9 -19 -35 -26v-1c1 -7 -5 -13 -12 -14v0c-7 0 -13 6 -13 12v2c-2 2 -3 4 -3 6c-2 6 1 11 5 14c2 7 5 14 11 19c4 4 12 9 24 7c5 -1 23 -4 23 -19z" />
    <glyph glyph-name="slash" unicode="/" horiz-adv-x="279" 
d="M253 380c5 -3 6 -9 3 -14c-29 -46 -144 -262 -216 -431c-1 -4 -5 -6 -9 -6c-1 0 -2 0 -4 1c-5 2 -7 7 -5 12c73 174 187 387 218 435c3 4 9 6 13 3z" />
    <glyph glyph-name="zero" unicode="0" 
d="M191 393c22 -3 46 -24 35 -103c-9 -64 -39 -156 -78 -234c-24 -50 -70 -132 -111 -132h-3c-11 2 -26 10 -31 44c-8 43 1 116 23 185c3 10 7 22 12 35c4 19 10 37 16 55c30 80 84 157 137 150zM207 293c3 28 6 77 -19 81c-31 4 -66 -37 -94 -89c9 9 19 16 29 22
c5 2 10 0 13 -5c2 -5 0 -10 -5 -13c-29 -15 -55 -58 -75 -109c-11 -47 -8 -83 9 -94c4 -3 6 -9 3 -14c-3 -4 -9 -5 -14 -3c-11 8 -18 20 -21 36c-12 -51 -17 -101 -11 -134c3 -17 8 -27 14 -27c17 -2 53 34 95 120c38 77 67 166 76 229z" />
    <glyph glyph-name="one" unicode="1" horiz-adv-x="188" 
d="M172 386c5 -2 6 -8 4 -12c-80 -174 -145 -435 -146 -438c-1 -4 -5 -7 -9 -7h-3c-5 1 -8 7 -7 12c1 2 50 198 115 364c0 0 0 -1 -1 -1c-27 -32 -38 -36 -45 -36c-5 0 -10 4 -10 9c0 6 4 10 10 10c10 3 47 45 79 96c3 4 9 6 13 3z" />
    <glyph glyph-name="two" unicode="2" horiz-adv-x="282" 
d="M88 -44c58 2 66 -3 69 -10c3 -4 2 -9 -1 -13c-3 -5 -9 -5 -14 -2c-1 1 -2 3 -3 5c-18 4 -89 0 -148 -7l-1 -1c-3 0 -7 2 -8 5c-2 4 -2 8 0 11c14 18 29 37 45 58c95 122 225 290 209 350c-2 9 -7 14 -15 17c-20 9 -42 -3 -58 -15c-36 -26 -62 -71 -64 -83
c3 -3 4 -7 2 -11c-2 -5 -8 -7 -13 -5c-6 3 -13 11 -4 32c17 40 87 124 144 101c14 -6 23 -16 27 -30c18 -70 -104 -228 -213 -368c-10 -14 -20 -27 -30 -39c25 2 53 5 76 5z" />
    <glyph glyph-name="three" unicode="3" horiz-adv-x="250" 
d="M127 140c30 -30 77 -75 26 -154c-26 -42 -66 -60 -101 -60c-11 0 -21 1 -30 5c-21 8 -32 24 -29 42c1 5 6 9 11 8s9 -6 8 -11c-2 -13 11 -19 17 -21c24 -9 75 -4 108 47c42 66 5 102 -24 130c-15 15 -29 28 -27 44c1 19 23 45 49 78c32 39 75 92 59 113
c-7 9 -25 13 -47 9c-23 -5 -49 -19 -55 -41c-1 -5 -7 -8 -12 -7c-5 2 -8 7 -7 12c9 32 43 50 71 55c29 6 54 -1 66 -16c25 -34 -18 -87 -60 -138c-20 -25 -44 -54 -45 -67c0 -7 11 -18 22 -28z" />
    <glyph glyph-name="four" unicode="4" horiz-adv-x="244" 
d="M227 373c-10 -28 -22 -61 -35 -96c-17 -45 -34 -94 -51 -141c8 1 16 1 24 2c5 0 10 -4 10 -9c1 -6 -4 -10 -9 -11c-6 0 -17 -1 -32 -2c-9 -24 -17 -47 -24 -69c-32 -94 -37 -121 -36 -129c1 -2 3 -4 3 -7c0 -6 -5 -10 -10 -10c-4 0 -8 2 -10 5c-4 6 -5 16 4 51
c6 21 15 51 28 89c7 22 15 45 24 69l-45 -3c-40 -3 -55 -4 -62 -4c-4 0 -4 0 -6 1c-10 5 -5 18 1 31c4 12 11 28 20 46c23 51 57 127 77 195c2 5 7 8 12 7c5 -2 8 -7 7 -12c-21 -70 -55 -147 -78 -198c-9 -19 -18 -39 -22 -50c19 1 59 4 103 7c17 49 36 101 53 149
c13 34 25 67 35 96c2 5 8 8 13 6s8 -8 6 -13z" />
    <glyph glyph-name="five" unicode="5" horiz-adv-x="227" 
d="M81 181c35 -24 84 -57 69 -132c-11 -51 -33 -81 -50 -97c-19 -18 -41 -28 -62 -28h-6c-25 3 -42 23 -42 50c0 6 4 10 10 10c5 0 9 -4 9 -10c0 -18 9 -29 25 -30c30 -3 80 28 97 109c13 62 -25 87 -61 112c-23 15 -45 30 -48 53c-2 20 23 84 59 143c-16 0 -30 -1 -41 -1v0
c-5 0 -10 4 -10 9s4 10 9 10c13 1 33 1 54 2c4 6 8 12 12 17c3 5 9 6 14 3c4 -3 5 -10 2 -14c-1 -2 -3 -4 -4 -6c35 0 74 1 100 3c6 0 10 -4 11 -9c0 -6 -4 -11 -10 -11c-26 -2 -65 -2 -103 -3h-11c-41 -65 -64 -128 -62 -141c2 -14 19 -26 39 -39z" />
    <glyph glyph-name="six" unicode="6" 
d="M196 396c4 3 10 2 13 -3c3 -4 1 -10 -3 -13c-59 -37 -119 -139 -152 -236c17 20 37 33 58 38c19 4 36 0 48 -12c20 -20 18 -59 15 -81c-5 -35 -18 -72 -34 -101c-23 -39 -50 -60 -77 -60c-5 0 -10 1 -14 2c-16 4 -36 17 -42 55c-8 51 11 136 50 223c40 89 91 160 138 188
zM116 163c-25 -6 -59 -34 -74 -77c-1 -3 -4 -5 -7 -6c-8 -36 -11 -68 -7 -92c3 -22 12 -35 27 -39c3 -1 6 -1 9 -1c27 0 49 30 60 50c32 55 43 137 22 158c-8 9 -21 9 -30 7z" />
    <glyph glyph-name="seven" unicode="7" horiz-adv-x="226" 
d="M226 375c-24 -27 -76 -120 -126 -226c-62 -132 -80 -195 -77 -205c3 -5 2 -11 -2 -14c-2 -1 -4 -1 -6 -1c-3 0 -6 1 -8 4c-5 8 -7 23 14 82c14 36 34 85 59 137c35 76 83 168 115 215c-56 -10 -113 -10 -151 0c-5 2 -9 7 -7 12c1 5 7 8 12 7c40 -11 108 -9 168 6
c4 1 8 -1 10 -5c3 -4 2 -8 -1 -12z" />
    <glyph glyph-name="eight" unicode="8" horiz-adv-x="260" 
d="M262 386c19 -21 -15 -68 -77 -147c-2 -3 -5 -7 -7 -10c2 -5 0 -11 -4 -13c-4 -3 -8 -5 -12 -8c-8 -11 -17 -22 -24 -32c5 -14 9 -29 14 -46c16 -59 10 -130 -15 -172c-13 -21 -31 -34 -51 -38c-5 -1 -9 -2 -14 -2c-26 0 -47 16 -58 44c-14 35 -9 83 12 128
c14 29 38 67 84 104c-10 25 -20 44 -29 59c-11 21 -20 36 -20 54c0 32 52 57 82 68c34 13 101 31 119 11zM120 -31c23 37 28 101 13 156c-3 11 -6 21 -9 31c-7 -11 -13 -21 -18 -31c-2 -4 -8 -6 -13 -4s-7 8 -4 13c5 10 11 21 19 33c-34 -31 -53 -62 -64 -85
c-19 -41 -24 -83 -12 -113c9 -24 27 -35 50 -30c15 3 28 13 38 30zM170 251c24 30 46 59 61 83c21 33 17 39 16 39c-1 2 -6 3 -13 3c-20 0 -59 -8 -98 -25c-34 -14 -55 -32 -55 -44c0 -13 7 -26 17 -45c8 -14 18 -32 28 -55c7 5 14 11 23 16c7 9 14 19 21 28z" />
    <glyph glyph-name="nine" unicode="9" horiz-adv-x="244" 
d="M235 392c5 -2 7 -7 6 -12c-48 -169 -91 -292 -128 -367c-29 -59 -53 -87 -76 -87h-1c-27 1 -35 38 -35 38c-1 6 2 11 7 12c6 1 11 -2 12 -8s8 -22 16 -23c5 0 25 5 60 77c27 55 58 137 91 246c-12 -25 -26 -50 -39 -74c-59 -100 -84 -108 -99 -104c-8 2 -17 8 -20 26
c-5 33 14 93 34 138c26 59 57 105 83 123c19 14 33 11 42 6c13 -7 13 -30 10 -49c11 22 19 41 25 53c2 5 7 7 12 5zM131 204c17 31 35 64 50 94c-2 0 -3 0 -4 1c-5 2 -7 8 -5 13c7 14 11 49 6 54c-2 1 -4 2 -5 2c-5 0 -10 -3 -16 -7c-23 -16 -52 -60 -76 -115
c-24 -54 -37 -103 -33 -127c1 -4 3 -9 6 -10c1 0 19 -4 77 95z" />
    <glyph glyph-name="colon" unicode=":" horiz-adv-x="242" 
d="M81 78c6 -1 23 -4 24 -18c0 -11 -9 -19 -35 -26v-1c1 -7 -5 -13 -12 -14v0c-7 0 -13 6 -13 12v2c-2 2 -3 4 -4 6c-1 6 1 11 6 14c2 7 5 14 11 19c4 4 12 8 23 6zM150 231c0 -12 -9 -19 -35 -27v-1c0 -7 -5 -13 -12 -13h-1c-6 0 -12 5 -12 12v2c-2 1 -3 3 -4 6
c-1 5 1 11 6 14c2 6 5 14 11 19c4 4 12 8 23 6c6 -1 23 -4 24 -18z" />
    <glyph glyph-name="semicolon" unicode=";" horiz-adv-x="232" 
d="M147 230c0 -11 -9 -18 -35 -26v-1c1 -7 -5 -13 -12 -13v0c-7 0 -13 5 -13 12v1c-2 2 -3 4 -4 6c-1 6 1 12 6 14c2 7 5 14 11 20c4 3 12 8 23 6c6 -1 23 -4 24 -19zM72 75c5 1 10 -2 12 -7c6 -26 1 -56 -15 -80c-15 -22 -35 -36 -58 -40h-1c-5 0 -9 3 -10 8s3 11 8 11
c17 3 33 15 44 32c13 20 18 44 13 64c-2 5 2 11 7 12z" />
    <glyph glyph-name="less" unicode="&#x3c;" horiz-adv-x="332" 
d="M91 169c52 -15 118 -41 135 -60c4 -5 6 -10 6 -15c-1 -5 -5 -9 -10 -9h-1c-5 1 -9 5 -9 10c-2 4 -19 17 -73 38c-39 14 -80 26 -100 27c-5 0 -9 4 -9 9s4 10 9 10c60 7 150 36 230 74c5 2 10 0 13 -5c2 -5 0 -10 -5 -13c-61 -29 -129 -53 -186 -66z" />
    <glyph glyph-name="equal" unicode="=" horiz-adv-x="292" 
d="M231 164c5 0 9 -5 9 -10s-4 -9 -10 -9v0c-51 2 -135 2 -190 2c-5 0 -10 5 -10 10s5 10 10 10c55 0 139 0 191 -3zM242 199c5 -1 10 -5 9 -11c0 -5 -4 -9 -9 -9h-1c-51 2 -135 2 -190 2c-5 0 -10 5 -10 10c0 6 5 10 10 10c56 0 139 0 191 -2z" />
    <glyph glyph-name="greater" unicode="&#x3e;" horiz-adv-x="324" 
d="M275 179c5 0 9 -4 9 -9s-4 -10 -9 -10c-60 -7 -150 -36 -229 -74c-2 0 -3 -1 -5 -1c-3 0 -7 2 -8 6c-3 5 -1 10 4 13c62 29 130 53 186 66c-51 15 -118 41 -135 60c-4 5 -6 10 -6 15c1 5 6 9 11 9c5 -1 9 -5 9 -10c2 -4 19 -17 73 -37c40 -15 81 -27 100 -28z" />
    <glyph glyph-name="question" unicode="?" horiz-adv-x="327" 
d="M270 468c27 -72 -53 -162 -117 -235c-20 -23 -39 -45 -51 -62c-15 -22 -12 -26 -12 -27c4 -4 3 -10 -1 -13c-2 -2 -4 -3 -6 -3c-3 0 -6 2 -8 4c-18 22 15 59 63 114c58 65 137 155 114 215c-9 24 -26 36 -52 34c-40 -1 -82 -32 -87 -49c-2 -5 -7 -9 -12 -7
c-5 1 -8 7 -7 12c7 26 58 62 105 64c34 1 60 -15 71 -47zM71 35c6 -1 23 -4 24 -19c0 -11 -10 -19 -35 -26v-1c0 -7 -5 -13 -12 -14h-1c-6 0 -12 6 -12 12v2c-2 2 -3 4 -4 6c-1 6 1 11 6 14c2 7 5 14 11 19c4 4 12 9 23 7z" />
    <glyph glyph-name="at" unicode="@" horiz-adv-x="475" 
d="M348 336c80 -54 76 -156 47 -227c-25 -63 -67 -103 -103 -97c-16 3 -27 12 -35 27c-9 19 -10 46 -6 74c-48 -87 -73 -122 -99 -112c-21 8 -28 34 -20 74c13 59 59 140 108 138c10 0 18 -5 22 -14c3 -6 3 -13 3 -20c5 9 10 18 15 28c1 2 2 3 2 5c3 4 9 6 14 3
c4 -2 6 -8 3 -13c0 -2 -1 -3 -2 -5c-23 -44 -38 -117 -22 -149c4 -10 11 -15 20 -17c26 -4 61 33 82 86c26 63 31 155 -40 203c-40 27 -90 29 -141 6c-77 -36 -135 -121 -145 -213c-11 -108 34 -156 74 -178c61 -33 137 -21 165 1c5 4 11 3 14 -1c3 -5 3 -11 -1 -14
c-21 -16 -55 -26 -93 -26c-31 0 -65 7 -94 23c-30 16 -52 40 -67 70c-17 35 -22 77 -17 127s23 99 53 140c27 39 64 70 103 89c57 26 114 24 160 -8zM229 122c-4 3 -5 9 -1 13c9 12 21 45 16 56c0 1 -1 3 -5 3h-1c-33 0 -75 -67 -87 -123c-5 -28 -3 -48 8 -52
c2 -1 11 0 32 32c12 17 25 40 41 69c-1 0 -2 1 -3 2z" />
    <glyph glyph-name="A" unicode="A" horiz-adv-x="658" 
d="M555 249c53 -6 85 -17 99 -36c3 -4 2 -10 -2 -13c-2 -2 -4 -2 -6 -2c-3 0 -6 1 -8 4c-8 10 -30 22 -89 28c-29 -95 -55 -188 -71 -269c-25 -132 -17 -208 24 -228c5 -3 7 -9 5 -13s-5 -6 -9 -6c-1 0 -3 0 -4 1c-28 13 -44 44 -48 91c-4 40 0 92 13 159
c16 80 41 172 70 266c-15 1 -31 2 -50 2c-81 0 -178 -8 -264 -15h-7c-34 -66 -62 -126 -79 -175c-2 -5 -7 -8 -13 -6c-5 2 -7 7 -6 12c17 47 43 105 75 167c-124 -9 -170 -11 -181 3c-3 4 -4 8 -3 13s7 8 12 7c3 -1 6 -4 7 -8c4 -1 18 -4 61 -2c31 1 72 4 115 8
c48 88 107 185 171 277c59 85 205 283 282 288c12 1 22 -3 29 -12c32 -41 -12 -187 -86 -421c-12 -40 -25 -80 -37 -120zM479 252c21 0 39 -1 56 -2c13 42 26 84 39 125c31 99 60 192 78 265c19 77 22 123 10 138c-1 3 -4 5 -11 5c-48 -3 -150 -111 -268 -280
c-61 -87 -118 -180 -164 -265c85 7 180 15 260 14z" />
    <glyph glyph-name="B" unicode="B" horiz-adv-x="544" 
d="M628 756c22 -30 19 -74 -9 -130c-53 -107 -194 -247 -321 -322c22 -1 43 -5 63 -11c45 -14 77 -42 92 -79c19 -47 14 -103 -15 -162c-26 -52 -68 -102 -119 -140c-42 -31 -86 -51 -127 -58c-11 -2 -21 -3 -31 -3c-34 0 -65 10 -90 30c-40 33 -54 95 -35 162
c13 49 44 96 84 132c18 16 38 29 59 40c4 13 9 27 14 41c-17 -5 -32 -7 -46 -7c-5 0 -9 3 -10 7s1 8 4 11c17 11 40 20 65 27c5 13 10 27 16 41c45 119 100 246 136 316c3 5 8 7 13 4c5 -2 7 -8 4 -13c-35 -69 -89 -193 -133 -309c-5 -12 -9 -24 -13 -34l27 3
c42 22 89 53 137 92c93 76 173 168 208 240c17 34 33 81 11 110c-29 38 -95 47 -188 24c-88 -21 -189 -69 -271 -128c-88 -64 -142 -130 -151 -187c-9 -55 25 -91 48 -115c3 -3 6 -7 9 -10c3 -4 3 -10 -1 -13c-4 -4 -11 -3 -14 1l-8 8c-24 26 -64 67 -53 132
c10 62 66 133 159 200c84 60 187 109 277 131c101 25 175 13 209 -31zM355 274c-29 10 -62 12 -93 9c-16 -7 -31 -14 -46 -20c-4 -13 -9 -25 -12 -36c28 12 60 21 93 25c5 1 10 -3 11 -8s-3 -10 -9 -11c-39 -5 -74 -17 -104 -31c-18 -58 -23 -85 -22 -93c3 -2 5 -5 5 -8
c0 -6 -4 -10 -10 -10c-5 0 -9 2 -11 6c-5 8 -7 23 12 86c0 1 1 3 1 5c-64 -41 -101 -100 -115 -150c-17 -60 -6 -114 29 -141c64 -52 158 -18 224 31c89 67 164 187 127 278c-13 33 -40 56 -80 68z" />
    <glyph glyph-name="C" unicode="C" horiz-adv-x="520" 
d="M532 184c4 -3 5 -9 3 -14c-40 -62 -193 -242 -337 -273c-14 -3 -28 -4 -41 -4c-33 0 -64 9 -91 28c-46 31 -69 93 -66 181c3 76 26 170 65 266c45 112 108 218 174 293c75 85 149 124 214 113c29 -5 50 -24 61 -54c21 -61 -2 -153 -53 -212c-3 -4 -10 -4 -14 -1
c-4 4 -4 10 -1 14c46 53 69 139 50 192c-9 24 -24 38 -47 42c-72 13 -146 -51 -196 -107c-64 -73 -126 -177 -170 -287c-83 -205 -85 -371 -6 -424c33 -23 73 -30 117 -20c76 15 152 76 202 123c60 56 106 115 122 141c3 4 9 6 14 3z" />
    <glyph glyph-name="D" unicode="D" horiz-adv-x="628" 
d="M149 12h-3c-5 2 -8 7 -7 12l196 602c2 5 8 8 13 7c5 -2 8 -8 6 -13l-196 -602c-1 -4 -5 -6 -9 -6zM637 737c60 -58 72 -149 33 -264c-40 -119 -134 -262 -253 -383c-118 -120 -240 -198 -325 -207c-6 -1 -12 -1 -18 -1c-40 0 -71 16 -91 48c-3 5 -1 11 3 14
c5 3 11 1 14 -3c18 -31 49 -44 90 -39c81 9 198 85 313 202c117 119 210 259 249 375c25 75 40 178 -29 244c-57 55 -158 60 -275 16c-79 -31 -159 -82 -221 -141c-64 -62 -101 -127 -106 -182c-4 -52 27 -86 45 -106l6 -6c4 -5 3 -11 -1 -14c-4 -4 -10 -3 -14 1
c-1 2 -3 4 -5 6c-19 21 -55 60 -50 121c4 60 44 129 112 194c63 61 146 114 227 145c58 22 114 33 162 31c55 -2 100 -19 134 -51z" />
    <glyph glyph-name="E" unicode="E" horiz-adv-x="510" 
d="M522 183c4 -3 5 -9 2 -14c-57 -74 -131 -143 -208 -194s-148 -78 -203 -78h-7c-39 2 -68 18 -87 47c-22 36 -25 81 -10 136c36 124 161 261 263 320c-21 6 -44 17 -64 30c-21 13 -57 40 -60 75c-2 36 39 84 74 118c44 42 103 85 158 115c45 25 128 63 168 34
c13 -10 20 -22 22 -38c6 -48 -42 -113 -78 -158c-4 -4 -10 -5 -14 -2c-4 4 -5 10 -1 14c19 24 79 98 74 143c-2 11 -6 19 -15 25c-22 17 -77 3 -147 -35c-117 -64 -224 -169 -221 -215c1 -19 20 -41 50 -60c27 -17 60 -30 83 -32c4 0 8 -3 9 -8c0 -4 -2 -8 -6 -10
c-100 -49 -239 -193 -276 -322c-14 -49 -12 -89 8 -119c14 -24 38 -37 71 -39c106 -4 286 114 401 265c4 4 10 5 14 2z" />
    <glyph glyph-name="F" unicode="F" horiz-adv-x="410" 
d="M493 856c4 -2 7 -7 5 -12c-4 -9 -11 -26 -20 -49c-38 -94 -117 -287 -192 -491c67 5 123 7 152 -9c5 -3 7 -9 4 -13c-3 -5 -8 -7 -13 -4c-26 14 -84 11 -151 5c-18 -50 -37 -102 -54 -153c-51 -146 -87 -265 -107 -351c-30 -136 -14 -163 -5 -168c4 -3 6 -9 3 -13
c-2 -3 -5 -5 -8 -5c-2 0 -4 0 -5 1c-30 18 -53 94 103 543c17 48 34 96 52 144c-6 0 -12 -1 -18 -1c-28 -3 -57 -6 -87 -8v0c-6 0 -10 4 -10 9c-1 6 3 10 9 11c29 2 58 5 86 7l27 3c71 190 144 372 185 474c-70 -78 -172 -128 -263 -174c-101 -50 -188 -93 -204 -159
c-9 -37 5 -81 43 -133c3 -5 2 -11 -2 -14s-11 -2 -14 2c-41 58 -56 107 -46 150c19 74 109 120 214 172c113 56 240 119 303 232c2 5 8 7 13 4z" />
    <glyph glyph-name="G" unicode="G" horiz-adv-x="642" 
d="M648 253c5 -1 8 -7 6 -12c-1 -5 -6 -8 -11 -7c-26 7 -72 5 -124 2c2 -29 -19 -96 -67 -242c-26 -77 -52 -156 -69 -220c-26 -96 -18 -113 -15 -116c4 -4 4 -10 0 -14c-2 -2 -4 -3 -7 -3c-2 0 -5 1 -6 3c-11 10 -18 34 9 135c17 65 44 144 69 221c20 60 39 116 51 160
c14 49 16 68 16 75h-7c-4 -2 -10 -7 -18 -15c-16 -16 -37 -42 -63 -74c-9 -12 -19 -23 -29 -36c-81 -98 -189 -204 -278 -204c-18 0 -35 4 -51 14c-61 37 -71 150 -26 311c34 125 97 260 168 362c39 55 78 98 117 129c44 35 86 52 125 52c29 0 52 -15 67 -42
c15 -29 21 -69 17 -114s-18 -87 -39 -119c-3 -4 -9 -5 -14 -3c-4 3 -6 10 -3 14c40 60 50 160 21 212c-11 22 -28 33 -49 33c-68 0 -148 -62 -226 -174c-69 -100 -131 -233 -165 -355c-42 -150 -35 -258 17 -289c88 -53 228 93 304 185c10 13 20 25 29 36c27 33 48 59 64 75
c-21 -1 -42 -2 -62 -2c-37 0 -70 3 -94 12c-5 1 -8 7 -6 12s7 8 12 6c39 -14 111 -10 177 -7c8 4 14 4 21 2v-1c57 4 109 6 139 -2z" />
    <glyph glyph-name="H" unicode="H" horiz-adv-x="583" 
d="M665 886c5 -3 6 -9 3 -14c-71 -104 -161 -344 -232 -564c66 0 121 -4 150 -18c5 -2 7 -8 5 -13c-2 -3 -6 -5 -9 -5c-2 0 -3 0 -4 1c-27 12 -82 16 -148 15c-9 -29 -19 -59 -27 -87c-41 -136 -75 -265 -96 -364c-31 -148 -22 -176 -18 -181c3 -4 1 -11 -3 -14
c-2 -1 -4 -1 -6 -1c-3 0 -6 1 -8 4c-4 7 -19 29 16 196c21 100 55 229 96 365c8 27 17 54 25 82c-50 -1 -105 -4 -157 -6c-29 -2 -56 -3 -80 -4c-23 -67 -48 -136 -72 -200c-18 -51 -36 -98 -51 -143c-2 -4 -5 -6 -9 -6h-3c-6 2 -8 8 -7 13l30 87c0 3 2 4 4 6
c6 16 12 33 18 50c22 62 46 127 69 192c-107 -4 -174 -1 -194 19c-4 4 -4 10 0 14c3 3 10 3 13 0c7 -7 29 -14 97 -15c27 0 57 0 90 2c21 60 40 120 54 174c34 128 38 207 11 234c-14 13 -39 13 -73 0c-5 -2 -11 0 -13 5s1 11 6 13c42 17 73 15 93 -4
c34 -33 32 -113 -5 -253c-14 -53 -32 -110 -52 -168c24 1 48 2 73 3c56 3 113 6 165 7c71 223 163 468 236 575c3 5 9 6 13 3z" />
    <glyph glyph-name="I" unicode="I" horiz-adv-x="304" 
d="M417 794c4 -2 7 -7 6 -12c-11 -39 -59 -160 -115 -301c-53 -132 -112 -281 -157 -403c-24 -66 -41 -117 -53 -156c-17 -58 -15 -71 -14 -74c1 -5 -1 -10 -6 -12c-2 -1 -3 -1 -4 -1c-4 0 -7 3 -9 7c-5 14 -1 55 68 243c45 122 104 271 157 403c36 91 69 174 90 231
c-66 -78 -154 -122 -228 -158c-73 -36 -131 -65 -143 -113c-9 -36 8 -83 52 -144c3 -4 2 -10 -2 -13s-11 -2 -14 2c-48 67 -66 117 -55 159c14 58 79 89 154 126c88 44 198 98 261 211c2 5 7 7 12 5z" />
    <glyph glyph-name="J" unicode="J" horiz-adv-x="562" 
d="M560 676c41 -25 52 -92 31 -197c-18 -87 -56 -200 -112 -326c-62 -140 -138 -283 -210 -391c-75 -113 -131 -170 -167 -170c-2 0 -5 0 -8 1c0 0 -1 0 -1 1c-20 8 -32 38 -33 85c-2 80 26 180 74 267c43 80 126 190 271 260c5 2 11 0 13 -5c3 -5 1 -11 -4 -13
c-249 -119 -337 -375 -334 -508c1 -44 11 -64 20 -68c6 -1 22 0 57 37c27 27 60 70 95 123c72 108 148 250 209 389c118 268 152 459 89 498c-31 20 -95 10 -172 -26c-79 -37 -162 -98 -226 -165c-64 -68 -202 -242 -90 -404c3 -4 2 -10 -2 -13c-5 -3 -11 -2 -14 2
c-46 66 -57 141 -35 222c19 68 63 139 127 206c66 70 151 131 232 170c85 40 152 49 190 25z" />
    <glyph glyph-name="K" unicode="K" horiz-adv-x="435" 
d="M844 888c5 0 10 -4 11 -9c0 -5 -4 -10 -9 -11c-60 -5 -220 -109 -417 -273c-134 -111 -258 -226 -339 -314c-13 -39 -26 -77 -39 -114c39 -42 102 -111 171 -166c82 -66 149 -93 198 -79c5 1 11 -2 12 -7c2 -5 -1 -11 -7 -12c-10 -3 -20 -4 -31 -4
c-120 0 -274 164 -349 247c-19 -58 -36 -114 -50 -169c0 1 1 3 2 3c3 5 9 6 13 2c5 -3 6 -9 2 -13c-2 -4 -13 -26 -20 -42c-13 -28 -19 -42 -22 -46c-2 -3 -5 -4 -8 -4c-2 0 -3 0 -4 1c-5 2 -7 6 -6 11c21 88 47 179 77 273c-11 13 -22 24 -25 27c-2 1 -4 3 -5 6
c-1 2 0 6 1 8c17 24 42 54 73 88c52 150 113 306 176 464c2 5 7 7 13 5c5 -2 7 -7 5 -12c-57 -144 -112 -285 -161 -422c81 84 192 186 311 285c76 62 331 269 427 277zM36 184c7 19 13 39 20 59c-13 -16 -25 -31 -34 -44c3 -3 8 -8 14 -15z" />
    <glyph glyph-name="L" unicode="L" horiz-adv-x="468" 
d="M457 -99c2 -5 1 -11 -4 -14c-2 0 -3 -1 -5 -1c-3 0 -7 2 -8 5c-17 31 -76 50 -157 52c-91 1 -203 -19 -315 -56c-4 -1 -8 -1 -11 2c-2 3 -3 7 -2 10c49 138 131 384 195 579c-2 -1 -4 -1 -6 0c-5 2 -8 8 -6 13l105 274c2 5 8 7 13 5c5 -1 7 -7 6 -12
c-2 -6 -190 -585 -282 -847c108 35 215 53 303 51c91 -1 153 -23 174 -61z" />
    <glyph glyph-name="M" unicode="M" horiz-adv-x="879" 
d="M888 184c5 -2 7 -8 5 -13c-38 -86 -133 -220 -212 -249c-20 -7 -38 -7 -54 1c-18 9 -31 26 -39 50c-27 82 12 235 49 350c16 50 35 103 57 157c-20 -35 -41 -70 -62 -104c-63 -105 -120 -194 -165 -257c-75 -103 -102 -117 -117 -117v0h-2c-10 1 -19 7 -25 17
c-17 26 -16 79 1 169c15 75 40 164 62 243c15 57 30 110 39 150c12 52 10 67 9 71v0c-15 0 -48 -21 -114 -144c-48 -91 -102 -213 -149 -321c-78 -178 -127 -288 -158 -307c-2 -1 -3 -1 -5 -1c-3 0 -5 1 -7 2c-16 15 -13 55 10 134c20 65 51 148 84 236
c40 107 81 218 107 311c29 101 35 165 18 189c-6 8 -14 11 -25 11c-5 0 -10 4 -10 9c0 6 4 10 9 10c18 1 32 -6 42 -19c21 -30 17 -95 -15 -206c-26 -93 -68 -204 -108 -311c-33 -88 -64 -171 -83 -236s-21 -93 -19 -105c30 35 87 165 142 291c47 108 101 231 150 322
c59 112 101 159 136 154c4 -1 8 -3 11 -7c14 -22 -6 -96 -45 -238c-41 -147 -97 -348 -66 -397c3 -4 7 -7 12 -8c4 0 27 8 99 109c45 63 102 151 165 255c58 97 112 191 152 264c22 48 45 95 69 140c2 4 7 6 12 5c4 -1 7 -6 6 -10c-1 -13 -29 -69 -70 -144
c-51 -110 -96 -223 -129 -323c-51 -158 -68 -278 -48 -338c6 -19 15 -32 29 -39c10 -5 23 -5 38 1c67 24 160 145 201 238c2 5 8 7 13 5z" />
    <glyph glyph-name="N" unicode="N" horiz-adv-x="685" 
d="M694 184c5 -2 8 -8 6 -13c-36 -81 -143 -272 -248 -272c-11 0 -21 2 -32 6c-128 51 -8 363 89 614c26 67 50 130 65 177c21 68 14 78 13 79v0c-16 0 -48 -15 -107 -85c-44 -52 -96 -127 -155 -221c-103 -164 -222 -385 -311 -575c-1 -4 -4 -6 -8 -6v0c-4 0 -7 2 -9 5
c-9 14 -10 55 50 254c39 128 93 287 136 415c21 60 40 117 55 162c2 5 7 8 12 6c6 -2 8 -7 7 -12c-15 -45 -35 -102 -55 -163c-43 -127 -97 -286 -136 -413c-21 -70 -36 -123 -45 -164c-3 -16 -5 -29 -7 -39c87 182 198 386 294 541c60 95 112 170 157 222
c52 62 92 92 122 92c7 0 13 -3 17 -8c17 -26 -14 -112 -77 -274c-46 -120 -99 -257 -126 -371c-29 -126 -21 -199 27 -218c50 -20 105 29 143 73c48 57 89 132 111 183c2 5 7 7 12 5z" />
    <glyph glyph-name="O" unicode="O" horiz-adv-x="517" 
d="M529 235c3 -4 2 -10 -2 -14c-59 -45 -114 -71 -164 -84c-8 -13 -16 -26 -24 -38c-38 -62 -79 -113 -117 -150c-43 -40 -81 -61 -114 -61c-28 0 -49 12 -64 35c-13 20 -20 49 -21 86c-2 57 10 131 32 211c-16 16 -31 33 -44 52c-31 46 -49 97 -49 142c0 74 51 153 140 218
c70 51 149 82 219 89c61 63 121 99 177 103c5 0 10 -4 11 -9c0 -6 -4 -10 -10 -11c-46 -3 -96 -30 -149 -81c24 0 46 -3 66 -9c39 -13 65 -41 78 -83c12 -37 13 -85 4 -142c-15 -96 -61 -217 -122 -328c43 14 90 37 139 76c4 3 10 2 14 -2zM-18 414c0 -58 31 -122 80 -172
c25 84 62 174 107 259c42 80 87 146 132 198c-61 -11 -128 -39 -187 -83c-83 -60 -132 -136 -132 -202zM323 109c4 7 9 15 14 23c-85 -15 -153 6 -194 27c-26 12 -50 28 -71 46c-21 -74 -32 -142 -30 -195c3 -68 25 -102 66 -102c54 0 136 77 215 201zM350 154
c65 113 113 239 129 338c12 78 10 177 -69 203c-23 8 -50 10 -79 8c-50 -53 -100 -126 -145 -211c-46 -87 -83 -180 -108 -265c22 -20 46 -38 73 -51c42 -20 112 -42 199 -22z" />
    <glyph glyph-name="P" unicode="P" horiz-adv-x="698" 
d="M575 776c73 -21 129 -74 158 -150c27 -72 28 -160 3 -248c-32 -107 -105 -206 -202 -273c-72 -49 -149 -75 -220 -75c-25 0 -49 3 -72 9c-2 1 -5 2 -7 3l-94 -283c-1 -4 -5 -7 -9 -7h-3c-5 2 -8 8 -6 13l94 284c-26 14 -46 34 -58 62c-14 32 -17 71 -8 111
c10 47 36 90 71 119c30 24 66 38 104 39l85 256c1 5 7 8 12 6c5 -1 8 -7 6 -12l-82 -250c7 0 14 -1 22 -2c5 -1 8 -6 8 -11c-1 -6 -6 -9 -12 -8c-8 1 -16 2 -25 2l-99 -301c2 0 4 -1 7 -2c174 -49 407 112 469 326c51 176 -11 333 -147 373c-154 45 -312 -48 -409 -151
c-53 -56 -96 -122 -119 -186c-25 -67 -29 -128 -12 -176c2 -6 -1 -11 -6 -13s-10 1 -12 6c-19 53 -15 118 11 190c25 66 69 134 124 193c59 63 127 111 198 139c79 32 158 38 230 17zM170 218c-13 -57 0 -121 53 -150l97 292c-83 -7 -135 -74 -150 -142z" />
    <glyph glyph-name="Q" unicode="Q" horiz-adv-x="498" 
d="M565 -225c5 -3 6 -9 4 -14c-2 -3 -6 -4 -9 -4c-2 0 -3 0 -5 1c-101 63 -203 143 -294 228c-11 -13 -23 -26 -35 -37c-42 -40 -81 -61 -114 -61c-29 0 -51 12 -66 36c-14 21 -21 51 -23 89c-2 57 10 131 34 210c-54 82 -83 154 -83 209c0 71 46 145 127 204
c48 34 105 61 161 76c35 9 69 13 100 12c38 27 76 42 113 44c5 1 10 -3 10 -9c0 -5 -4 -10 -9 -10c-27 -2 -55 -12 -83 -29c9 -1 19 -3 28 -6c38 -13 64 -41 78 -83c11 -37 12 -85 3 -142c-18 -115 -79 -264 -158 -390c-23 -37 -47 -69 -70 -98c90 -85 191 -164 291 -226z
M-7 432c0 -48 25 -112 71 -184c24 74 56 151 95 224c45 82 95 153 145 203c11 10 21 20 32 29c-71 -4 -154 -34 -223 -84c-76 -55 -120 -124 -120 -188zM112 -92c36 0 84 33 135 92c-33 33 -65 66 -95 100c-31 35 -58 70 -81 103c-20 -72 -30 -137 -28 -189
c2 -71 26 -106 69 -106zM260 15c22 27 45 59 67 94c79 124 138 271 156 383c12 78 11 177 -68 203c-15 5 -31 8 -48 9c-65 -48 -131 -130 -191 -242c-41 -76 -75 -158 -98 -235c25 -37 55 -75 89 -115c29 -32 60 -65 93 -97z" />
    <glyph glyph-name="R" unicode="R" horiz-adv-x="634" 
d="M613 -18c4 3 11 3 14 -1c4 -4 4 -10 0 -14c-53 -48 -111 -68 -174 -61c-74 9 -153 57 -236 142c-45 46 -83 95 -114 138c-46 -96 -90 -201 -131 -313c-1 -4 -5 -6 -9 -6h-3c-5 2 -8 8 -6 13l120 348c-2 2 -3 4 -4 6c-3 4 -2 10 2 13c2 2 6 3 9 2l177 514c2 6 7 8 12 6
c5 -1 8 -7 6 -12l-180 -522c2 -2 4 -4 6 -5c168 340 337 521 450 551c35 9 66 4 89 -15c18 -15 27 -41 27 -75c-2 -102 -90 -280 -281 -430c-71 -56 -139 -83 -202 -80c-26 1 -48 8 -66 16c31 -43 68 -90 112 -135c79 -82 155 -128 224 -136c57 -7 110 12 158 56zM75 173
c5 10 10 21 15 31c-1 2 -2 3 -3 4zM293 518c-60 -84 -118 -185 -174 -299c55 -31 145 -30 256 58c85 66 157 145 206 226c42 69 67 137 67 188c1 28 -6 49 -19 60c-19 15 -43 19 -72 11c-73 -20 -169 -108 -264 -244z" />
    <glyph glyph-name="S" unicode="S" horiz-adv-x="622" 
d="M494 409c38 61 75 137 102 208c26 71 38 127 32 150c-1 4 -3 7 -4 8c-25 14 -90 -3 -176 -45c-91 -45 -195 -112 -279 -180c-90 -73 -145 -138 -151 -179c-9 -64 85 -109 185 -156c75 -36 152 -73 200 -123c51 42 106 74 160 93c5 1 11 -1 13 -6c1 -6 -1 -11 -7 -13
c-55 -19 -108 -51 -153 -89c6 -8 11 -16 16 -25c40 -77 0 -168 -55 -220c-30 -29 -61 -44 -87 -44c-10 0 -20 2 -28 7c-13 8 -28 24 -25 59c5 48 43 115 103 179c15 17 31 32 48 47c-45 47 -120 82 -194 117c-106 51 -206 98 -195 177c9 62 103 146 158 191
c85 69 190 137 282 182c67 33 155 67 194 45c7 -4 11 -11 14 -20c15 -62 -62 -255 -137 -373c-2 -4 -8 -6 -13 -3s-6 9 -3 13zM401 65c-83 -73 -139 -160 -144 -213c-2 -20 3 -33 15 -40c21 -12 58 2 91 34c50 47 87 129 52 197c-4 7 -9 15 -14 22z" />
    <glyph glyph-name="T" unicode="T" horiz-adv-x="267" 
d="M827 794c5 -2 8 -8 6 -13s-7 -7 -12 -5c-123 46 -295 29 -456 7c-78 -171 -162 -404 -218 -575c-36 -110 -64 -208 -83 -283c-25 -100 -23 -126 -22 -132c4 -1 6 -5 7 -9c0 -5 -4 -10 -9 -10h-1c-5 0 -10 2 -12 6c-4 6 -14 20 17 146c19 75 48 174 84 284
c54 170 137 398 214 570c-15 -2 -30 -5 -45 -7c-91 -13 -175 -25 -241 -25c-44 0 -80 5 -106 19c-4 3 -6 9 -4 13c3 5 9 7 14 4c58 -31 186 -13 334 9c19 2 38 5 57 8c7 14 13 28 20 41c2 5 8 7 13 4c5 -2 7 -8 4 -13c-4 -9 -9 -19 -14 -29c161 22 329 37 453 -10z" />
    <glyph glyph-name="U" unicode="U" horiz-adv-x="487" 
d="M628 749c10 -15 -9 -62 -85 -239c-52 -122 -116 -272 -157 -398c-58 -176 -45 -229 -24 -242c4 -3 5 -9 3 -14c-2 -2 -5 -4 -9 -4c-1 0 -3 0 -5 2c-40 25 -35 109 16 264c42 127 106 278 158 399c26 60 48 111 64 151c12 32 18 49 20 59c-9 -10 -26 -32 -57 -81
c-33 -54 -75 -127 -120 -205c-172 -297 -310 -526 -382 -543c-10 -2 -19 -1 -26 4c-23 16 -31 55 -24 120c6 54 22 124 47 209c44 146 114 326 178 458c3 5 9 7 13 4c5 -2 7 -8 5 -13c-64 -131 -134 -309 -177 -455c-51 -170 -63 -285 -31 -307c2 -1 5 -2 11 -1
c30 7 83 69 158 184c68 103 144 234 211 350c46 80 90 156 124 211c54 85 68 92 78 92c5 0 9 -2 11 -5z" />
    <glyph glyph-name="V" unicode="V" horiz-adv-x="395" 
d="M801 847c5 -3 8 -8 6 -13c-3 -5 -8 -8 -13 -5c-10 4 -24 2 -42 -6c-76 -34 -212 -184 -354 -391c-142 -206 -261 -426 -309 -573c-2 -4 -5 -7 -10 -7h-2c-5 1 -8 6 -7 11c20 202 59 386 90 533c38 179 68 321 26 340c-37 16 -111 -40 -164 -123
c-53 -85 -85 -197 -14 -260c4 -4 5 -10 1 -14s-10 -4 -14 -1c-80 71 -47 194 10 285c52 81 135 154 188 131c58 -25 31 -152 -14 -362c-27 -127 -59 -282 -81 -452c59 143 163 328 284 503c146 213 281 362 363 398c22 10 41 12 56 6z" />
    <glyph glyph-name="W" unicode="W" horiz-adv-x="693" 
d="M688 753c24 -33 37 -81 40 -142c2 -55 -5 -121 -20 -191c-31 -139 -92 -284 -164 -388c-39 -56 -79 -98 -119 -125c-32 -21 -64 -32 -95 -32c-12 0 -24 2 -35 5c-30 8 -54 30 -71 66c-28 58 -37 152 -25 266c7 62 19 127 36 186c-12 -24 -26 -49 -39 -75
c-37 -69 -75 -140 -106 -194c-51 -88 -65 -96 -75 -97h-1c-6 0 -11 3 -15 9c-5 8 -10 27 4 92c9 42 25 99 47 163c42 131 102 281 158 403c2 5 8 7 13 5s7 -8 5 -13c-57 -123 -117 -275 -160 -406c-21 -65 -36 -121 -45 -162c-10 -50 -8 -66 -6 -70c6 4 21 22 61 90
c30 53 67 123 102 190c36 67 70 131 97 177c3 5 8 7 13 4c4 -2 6 -8 4 -12c-70 -163 -108 -428 -51 -548c15 -30 35 -49 59 -55c70 -20 151 32 228 144c70 102 130 244 161 381c31 144 25 259 -17 317c-31 43 -82 55 -151 34c-6 -2 -11 1 -13 6c-1 6 2 11 7 13
c97 29 147 -6 173 -41z" />
    <glyph glyph-name="X" unicode="X" horiz-adv-x="783" 
d="M791 860c3 -4 1 -10 -3 -13c-211 -126 -415 -361 -570 -589c1 -11 3 -22 5 -33c26 -156 87 -270 168 -313c47 -25 99 -25 156 0c64 27 131 86 201 174c3 4 9 5 14 2c4 -4 4 -10 1 -14c-71 -91 -141 -151 -208 -180c-63 -27 -121 -27 -174 1c-86 46 -150 165 -177 327
c-1 3 -2 7 -2 11c-88 -131 -158 -259 -202 -360c-1 -4 -5 -6 -9 -6h-2c-5 2 -8 6 -7 11c43 271 140 589 260 849c2 5 7 7 12 5c5 -1 8 -7 6 -12c-44 -136 -59 -291 -45 -433c154 224 356 453 563 577c4 3 10 1 13 -4zM198 262c-14 112 -9 232 13 347
c-86 -211 -157 -447 -197 -661c46 94 109 203 184 314z" />
    <glyph glyph-name="Y" unicode="Y" horiz-adv-x="569" 
d="M499 689c15 0 35 -6 46 -35c15 -38 12 -106 -8 -203c-18 -87 -49 -192 -90 -301c-70 -188 -182 -423 -285 -520c-31 -29 -59 -43 -84 -43c-9 0 -18 2 -27 6c-41 20 -43 98 -5 209c29 83 75 168 124 227c61 72 123 104 179 92c5 -1 9 -7 8 -12c-2 -5 -7 -9 -12 -7
c-62 13 -121 -39 -160 -86c-48 -57 -93 -139 -120 -220c-34 -97 -36 -171 -6 -185c24 -11 54 0 89 33c44 40 94 113 145 209c48 88 95 194 136 303c40 109 71 213 89 299c19 92 22 158 9 192c-8 20 -20 22 -28 22c-46 0 -95 -117 -143 -230c-67 -157 -142 -335 -250 -335
c-4 0 -7 0 -11 1c-33 3 -59 26 -75 65c-22 51 -26 128 -11 211c15 87 48 167 93 225c4 4 10 5 14 2s5 -9 2 -14c-43 -55 -75 -132 -90 -216c-14 -79 -10 -154 10 -201c13 -32 33 -50 59 -53h9c95 -1 168 171 232 323c55 130 102 242 161 242z" />
    <glyph glyph-name="Z" unicode="Z" horiz-adv-x="516" 
d="M518 184c5 -1 8 -7 6 -12s-8 -8 -13 -6c-28 11 -58 18 -88 23c8 -75 -10 -147 -54 -214c-50 -77 -121 -127 -172 -155c-56 -31 -117 -52 -171 -59c-13 -1 -25 -2 -36 -2c-41 0 -74 10 -96 29c-47 40 -49 105 -7 176c79 133 295 267 513 247c-23 107 -150 152 -267 141
c-4 -1 -9 2 -10 6c-1 5 0 10 4 12c136 78 210 146 249 189c47 52 68 98 57 122c-18 37 -108 48 -209 24c-95 -22 -190 -73 -189 -137c0 -5 -4 -10 -10 -10v0c-5 0 -9 4 -9 10c-1 80 109 134 204 156c92 22 204 20 230 -34c16 -33 -5 -85 -59 -144
c-51 -57 -127 -116 -220 -173c115 -1 230 -54 249 -164c33 -4 66 -12 98 -25zM188 -163c57 32 240 151 215 354c-15 2 -31 3 -47 3c-68 0 -139 -15 -208 -44c-105 -44 -198 -119 -244 -196c-22 -37 -51 -105 3 -151c24 -21 65 -29 116 -22c52 6 111 26 165 56z" />
    <glyph glyph-name="bracketleft" unicode="[" horiz-adv-x="279" 
d="M265 456l-43 3l-199 -613c16 -1 37 -1 50 -1c5 0 10 -4 10 -10c0 -5 -5 -9 -10 -9c-17 0 -47 0 -64 2c-3 0 -5 2 -7 4c-2 3 -2 6 -1 8l205 632c1 5 5 7 9 7l52 -3c5 -1 9 -5 9 -11c-1 -5 -5 -9 -11 -9z" />
    <glyph glyph-name="backslash" unicode="\" horiz-adv-x="299" 
d="M228 -71c-4 0 -7 2 -9 6c-71 169 -186 385 -216 431c-3 5 -1 11 3 14c5 3 11 1 14 -3c30 -48 144 -261 217 -435c2 -5 0 -10 -5 -12c-1 -1 -2 -1 -4 -1z" />
    <glyph glyph-name="bracketright" unicode="]" horiz-adv-x="263" 
d="M237 477c3 0 5 -2 7 -4c2 -3 2 -6 1 -9l-205 -632c-1 -4 -5 -6 -9 -6v0l-52 3c-5 0 -9 5 -9 10c1 6 5 10 11 9l43 -2l199 613c-16 1 -37 1 -50 1c-5 0 -10 4 -10 9c0 6 5 10 10 10c17 0 47 0 64 -2z" />
    <glyph glyph-name="asciicircum" unicode="^" horiz-adv-x="228" 
d="M195 397c-18 18 -21 64 -11 128l-105 -129c-4 -5 -10 -5 -14 -2c-4 4 -5 10 -1 14l130 160c3 4 8 5 12 3s6 -7 5 -11c-22 -97 -12 -140 -2 -149c2 -3 3 -3 5 -2c5 1 10 -3 11 -8s-2 -10 -7 -11c-2 -1 -4 -1 -5 -1c-7 0 -13 3 -18 8z" />
    <glyph glyph-name="underscore" unicode="_" horiz-adv-x="356" 
d="M242 -45c5 0 9 -5 9 -10s-4 -9 -10 -9v0c-51 2 -217 2 -271 2c-5 0 -10 4 -10 10c0 5 5 10 10 10c54 0 220 0 272 -3z" />
    <glyph glyph-name="grave" unicode="`" horiz-adv-x="157" 
d="M20 530l53 -82c3 -5 1 -11 -3 -14c-2 -1 -4 -1 -6 -1c-3 0 -6 1 -8 4l-53 83c-3 5 -1 11 3 13c5 3 11 2 14 -3z" />
    <glyph glyph-name="a" unicode="a" horiz-adv-x="361" 
d="M373 183c5 -4 5 -10 2 -14c-4 -5 -9 -12 -15 -19c-43 -56 -122 -161 -197 -148c-22 3 -39 16 -48 37c-12 30 -8 72 2 108c-5 -6 -10 -13 -15 -20c-48 -65 -93 -127 -132 -127c-4 0 -8 1 -11 2c-9 3 -24 12 -24 44c0 28 12 65 31 96c23 38 53 64 86 74c20 7 40 3 51 -10
c5 -5 11 -15 11 -30c11 14 21 27 31 38c3 3 9 4 13 1c4 -4 5 -9 2 -14c-22 -34 -45 -113 -27 -154c7 -15 18 -23 33 -26c63 -11 138 88 179 141c5 7 10 14 15 19c3 4 9 5 13 2zM91 145c-2 3 -3 7 -1 10c6 17 6 30 -1 38c-4 4 -11 7 -19 7c-4 0 -8 -1 -12 -2
c-28 -9 -55 -33 -75 -66c-18 -28 -29 -61 -28 -86c0 -6 1 -22 10 -25c28 -9 82 64 121 118c2 2 3 4 5 6z" />
    <glyph glyph-name="b" unicode="b" horiz-adv-x="314" 
d="M318 185c5 0 9 -4 10 -10c0 -5 -4 -10 -10 -10c-40 -1 -77 -9 -109 -22c-3 -8 -7 -17 -12 -27c-31 -64 -95 -146 -140 -146c-5 0 -9 1 -14 3c-1 1 -2 1 -2 2c-7 6 -13 18 -4 41c10 27 38 68 90 105c17 12 39 26 67 37c11 33 13 65 -7 75c-25 9 -62 -12 -102 -60
c-37 -44 -73 -105 -96 -164c-1 -4 -5 -7 -9 -7c-5 0 -10 3 -13 8c-5 7 -8 22 4 76c9 33 22 79 41 134c32 92 77 210 124 324c2 5 8 8 13 5c5 -2 7 -7 5 -12c-47 -113 -92 -231 -123 -323c-33 -97 -45 -146 -48 -170c23 52 55 103 87 142c47 56 90 78 124 65h1
c25 -13 32 -42 22 -84c29 10 62 17 101 18zM180 125c1 2 2 4 3 7c-70 -35 -115 -88 -127 -122c-4 -11 -4 -17 -3 -20c12 -3 34 10 57 34c26 26 52 64 70 101z" />
    <glyph glyph-name="c" unicode="c" horiz-adv-x="266" 
d="M278 183c4 -3 5 -10 2 -14c-26 -34 -155 -197 -257 -197c-6 0 -13 1 -19 3c-42 9 -61 46 -51 101c6 40 28 84 56 120c33 39 68 59 100 55c17 -1 30 -10 36 -25c8 -18 5 -40 -3 -51c-3 -4 -9 -5 -14 -2c-4 3 -5 9 -2 13c4 6 7 20 1 32c-3 8 -10 13 -20 14
c-25 3 -55 -15 -82 -49c-27 -32 -47 -74 -53 -111c-5 -31 -3 -69 37 -78c33 -8 80 12 135 58c56 48 103 106 120 129c3 4 10 5 14 2z" />
    <glyph glyph-name="d" unicode="d" horiz-adv-x="249" 
d="M324 550c5 -3 7 -8 5 -13c-11 -32 -34 -84 -63 -144c-29 -72 -65 -166 -99 -262c-37 -106 -66 -196 -83 -263c-29 -111 -18 -125 -16 -126v0c5 0 9 -5 9 -10s-4 -10 -9 -10c-8 0 -14 4 -18 11c-7 13 -12 42 19 156c18 68 47 159 84 262c10 27 20 55 30 81
c-5 -8 -10 -17 -14 -25c-39 -69 -73 -123 -103 -161c-37 -49 -64 -68 -85 -62c-21 7 -33 30 -33 63c0 60 41 158 114 181c19 6 37 4 51 -7c11 -8 18 -20 21 -35c6 10 12 20 18 31c35 61 69 128 97 186c30 75 54 130 63 143c3 4 8 6 12 4zM-13 3c4 -1 34 -5 131 156
c-1 1 -1 3 -1 5c0 19 -5 34 -16 42c-5 4 -11 6 -19 6c-4 0 -9 -1 -14 -3c-62 -19 -100 -107 -100 -162c0 -11 1 -39 19 -44z" />
    <glyph glyph-name="e" unicode="e" 
d="M243 183c5 -4 5 -10 2 -14c-14 -18 -58 -72 -107 -113c-45 -37 -86 -56 -121 -56c-7 0 -15 1 -22 2c-37 10 -54 42 -46 87c6 31 23 65 46 90c26 29 56 43 83 40c18 -2 24 -10 27 -17c5 -13 -2 -30 -19 -50c-26 -30 -73 -57 -106 -48c-2 0 -4 2 -6 3c-2 -7 -4 -14 -5 -21
c-4 -21 -5 -56 31 -65c33 -8 76 9 125 50c48 40 91 93 105 110c3 4 9 5 13 2zM76 200c-36 4 -75 -34 -95 -77h1h3c24 -7 64 17 87 42c12 15 16 26 15 30c-2 3 -8 5 -11 5z" />
    <glyph glyph-name="f" unicode="f" horiz-adv-x="184" 
d="M195 183c5 -3 6 -9 3 -13c-24 -35 -157 -178 -265 -251c-2 -8 -4 -15 -6 -22c20 -8 32 -23 39 -37c36 -68 -3 -196 -46 -247c-14 -16 -26 -21 -35 -21c-3 0 -5 0 -7 1c-7 3 -13 8 -16 16c-18 39 8 159 41 275c-9 2 -19 2 -30 1c-5 0 -9 3 -10 7c-2 5 1 10 5 12
c15 6 31 16 49 27c4 14 8 28 12 41c48 156 114 336 160 437c2 5 8 7 13 5s7 -7 5 -12c0 -1 -36 -112 -48 -156c-1 -6 -7 -9 -12 -7c-2 0 -4 1 -5 3c-32 -87 -66 -185 -94 -276c-2 -6 -4 -11 -6 -17c101 75 219 201 240 232c3 4 9 6 13 2zM-51 -149c-7 13 -16 22 -27 27
c-40 -139 -55 -233 -43 -261c1 -2 3 -5 5 -5c3 -1 11 2 21 14c39 45 74 167 44 225z" />
    <glyph glyph-name="g" unicode="g" horiz-adv-x="349" 
d="M362 182c4 -4 4 -10 0 -14c-54 -53 -110 -120 -164 -196c-18 -64 -39 -126 -52 -164c-51 -142 -124 -305 -164 -342c-7 -6 -13 -9 -19 -9c-2 0 -4 0 -6 1c-5 2 -11 7 -14 19c-8 42 36 162 111 299c38 72 81 141 126 204c19 71 32 136 31 182c0 24 -4 54 -23 57
c-17 4 -36 -13 -55 -38c2 -8 3 -16 3 -25c0 -5 -4 -10 -10 -10c-5 1 -10 5 -9 10v2c-11 -16 -22 -35 -32 -52c-36 -61 -66 -113 -101 -103c-21 5 -33 27 -34 58c-1 60 38 137 103 157c22 7 43 4 59 -8c4 -3 8 -6 11 -10c21 26 44 43 69 39c11 -2 26 -10 34 -36
c11 -40 2 -109 -15 -180c45 61 92 115 137 159c4 4 10 4 14 0zM68 116c14 23 28 47 42 68c-2 4 -6 8 -10 10c-7 6 -15 8 -25 8c-5 0 -10 0 -16 -2c-60 -19 -90 -93 -89 -139c0 -10 2 -35 19 -39c20 -6 51 47 79 94zM104 -248c20 52 41 111 58 168c-32 -49 -63 -100 -91 -153
c-80 -147 -115 -255 -109 -286c1 -2 1 -3 2 -4c3 2 19 13 55 81c26 51 57 120 85 194z" />
    <glyph glyph-name="h" unicode="h" horiz-adv-x="412" 
d="M424 183c4 -3 5 -9 2 -14c-67 -92 -115 -136 -150 -136c-3 0 -6 0 -9 1c-36 8 -45 61 -53 108c-3 15 -5 30 -8 41c-5 14 -8 15 -8 15c-13 1 -48 -21 -105 -87c-44 -51 -93 -119 -127 -178c-2 -3 -5 -4 -9 -4h-1c-5 0 -9 3 -11 8c-5 8 -8 28 12 105c13 49 33 115 59 190
c50 147 114 308 159 403c2 5 8 7 13 5c5 -3 7 -9 4 -13c-44 -94 -107 -255 -157 -401c-26 -75 -46 -140 -59 -189c-10 -38 -14 -60 -15 -73c34 54 78 114 117 160c56 65 97 96 122 93c21 -2 26 -33 33 -72s15 -87 38 -92c19 -5 58 14 139 128c3 4 10 5 14 2z" />
    <glyph glyph-name="i" unicode="i" horiz-adv-x="223" 
d="M235 183c4 -4 5 -10 1 -14c-4 -5 -9 -12 -14 -19c-41 -53 -114 -149 -185 -149c-4 0 -8 0 -12 1c-22 3 -37 15 -45 34c-22 50 11 140 35 176c3 5 9 6 13 3c5 -3 6 -9 3 -14c-21 -31 -52 -115 -33 -157c5 -13 15 -21 30 -23c3 -1 6 -1 9 -1c61 0 131 92 169 142
c6 7 11 14 15 19c4 4 10 5 14 2zM28 264v1c-2 3 -1 7 1 9c1 8 4 18 11 24c4 4 11 8 21 6c7 -1 21 -4 22 -15c1 -10 -9 -16 -36 -27v-1c1 -6 -3 -10 -9 -10v0c-5 0 -10 4 -10 9v4z" />
    <glyph glyph-name="j" unicode="j" horiz-adv-x="171" 
d="M16 264v1c-1 3 -1 7 1 9c1 8 4 18 11 24c4 4 11 8 22 6c7 -1 20 -4 21 -15c1 -10 -8 -16 -35 -27v-1c0 -6 -4 -10 -9 -10h-1c-5 0 -9 4 -10 9v4zM184 181c4 -4 3 -10 -1 -13c-78 -68 -176 -200 -270 -363c-10 -17 -20 -34 -29 -51c-12 -40 -24 -77 -36 -110
c-37 -109 -50 -123 -59 -128c-2 -1 -4 -1 -6 -1s-3 0 -5 1c-3 1 -8 4 -9 12c-5 28 41 131 97 233c14 45 29 92 43 138c36 118 74 240 101 311c2 5 8 8 13 6s8 -8 6 -13c-28 -70 -65 -192 -101 -310c-6 -17 -11 -34 -16 -52c51 87 156 253 258 341c4 4 10 4 14 -1zM-209 -450
c7 14 18 40 35 89c-3 -5 -5 -11 -7 -17c-17 -36 -25 -59 -28 -72z" />
    <glyph glyph-name="k" unicode="k" horiz-adv-x="326" 
d="M338 183c4 -3 5 -9 2 -14c-82 -114 -147 -169 -195 -169c-6 0 -11 0 -16 1c-41 11 -57 65 -63 112c-16 -21 -32 -41 -47 -61c-12 -16 -24 -32 -35 -46c-2 -2 -4 -4 -7 -4c-6 0 -10 3 -13 8c-4 7 -18 29 65 257c47 126 106 270 149 356c3 5 8 7 13 5c5 -3 7 -9 5 -13
c-42 -86 -101 -227 -147 -352c-50 -137 -67 -204 -69 -230c8 10 16 20 24 31c92 121 166 215 206 219c7 1 14 -1 19 -6c13 -11 0 -33 -4 -40c-22 -40 -93 -120 -139 -126c5 -34 17 -82 48 -91c29 -7 84 15 190 161c3 4 10 5 14 2zM80 131c9 -1 28 7 57 32
c46 40 77 88 78 100c-1 0 -2 1 -3 0c-10 -1 -32 -14 -81 -70c-17 -19 -34 -40 -51 -62z" />
    <glyph glyph-name="l" unicode="l" horiz-adv-x="235" 
d="M245 183c5 -2 7 -8 4 -13c-12 -23 -43 -71 -83 -111s-77 -61 -109 -61c-8 0 -15 1 -22 4c-39 13 -55 65 -43 141c12 77 49 186 99 291c38 79 91 168 124 180c11 5 18 1 21 -2s5 -7 6 -12c3 -33 -56 -148 -91 -213c-52 -96 -109 -188 -135 -219v0c-2 -9 -4 -19 -5 -28
c-10 -65 1 -110 30 -120c65 -23 163 105 191 159c2 5 8 7 13 4zM216 593c-45 -32 -143 -219 -187 -374c29 44 70 113 108 183c69 128 86 182 86 195c-2 -1 -4 -2 -7 -4z" />
    <glyph glyph-name="m" unicode="m" horiz-adv-x="537" 
d="M550 183c4 -3 5 -10 1 -14c-70 -93 -119 -136 -157 -136h-5c-32 4 -47 35 -62 66c-13 27 -24 51 -44 54c-37 6 -79 -44 -110 -81c-14 -16 -25 -30 -36 -38c-8 -7 -14 -6 -18 -3c-12 7 -8 30 6 93c5 25 11 51 14 72c4 28 1 36 0 38c-7 0 -19 -6 -42 -39
c-19 -28 -39 -66 -61 -107c-14 -27 -29 -55 -45 -81c-1 -3 -5 -5 -8 -5h-2c-10 2 -17 7 -21 15c-16 30 10 93 35 155c7 17 14 34 19 48c2 5 8 8 13 6s7 -7 6 -13c-6 -14 -13 -31 -20 -49c-20 -49 -48 -116 -36 -137c0 -1 1 -2 2 -3c13 24 27 49 40 73c48 90 86 161 124 157
c5 -1 9 -4 12 -8c12 -17 4 -59 -11 -127c-5 -21 -11 -49 -13 -64c8 7 17 18 27 30c36 42 80 95 128 88c30 -5 44 -36 59 -65c13 -27 25 -53 46 -55c30 -3 78 40 145 128c3 4 9 5 14 2z" />
    <glyph glyph-name="n" unicode="n" horiz-adv-x="413" 
d="M426 182c4 -3 4 -9 1 -13c-81 -91 -142 -136 -185 -136c-6 0 -11 1 -16 2c-42 13 -50 73 -55 112c-1 9 -2 21 -4 25c-4 1 -20 1 -68 -40c-35 -30 -74 -71 -108 -107c-2 -2 -5 -3 -7 -3h-1c-2 0 -4 1 -6 3c-15 14 -10 51 -4 79c9 38 25 80 44 115c2 4 8 6 13 4
c5 -3 6 -9 4 -14c-18 -33 -33 -73 -42 -109c-5 -24 -6 -40 -5 -50c32 33 68 70 99 97c47 40 75 52 93 41c7 -5 9 -16 12 -39c4 -34 10 -86 40 -95c24 -8 75 9 181 128c4 4 10 4 14 0z" />
    <glyph glyph-name="o" unicode="o" horiz-adv-x="297" 
d="M311 181c3 -4 3 -10 -2 -14c-37 -28 -130 -40 -189 -30c-1 -3 -1 -7 -1 -10c-7 -44 -33 -90 -65 -112c-13 -9 -26 -14 -39 -14c-4 0 -7 0 -11 1c-30 6 -44 46 -35 101c11 67 52 132 109 125c6 -1 10 -5 9 -11c-1 -5 -6 -9 -11 -8c-45 5 -79 -53 -88 -109
c-6 -43 2 -75 20 -79c14 -3 27 4 35 10c28 19 51 60 56 99c1 4 1 8 1 11c-10 3 -18 7 -24 12c-11 9 -13 22 -7 34v1c11 17 23 15 27 13c13 -4 21 -22 23 -44c52 -10 144 -1 178 26c5 3 11 2 14 -2zM89 168c2 -2 6 -4 10 -6c-2 12 -6 19 -9 21c0 -1 -2 -2 -4 -5
c-2 -4 -1 -7 3 -10z" />
    <glyph glyph-name="p" unicode="p" horiz-adv-x="276" 
d="M288 183c4 -3 5 -9 2 -14c-82 -122 -152 -180 -206 -171c-32 6 -50 33 -57 50c-45 -107 -93 -243 -132 -379c-1 -3 -3 -5 -5 -6s-3 -1 -5 -1h-3c-2 1 -6 4 -8 9c-13 29 25 182 42 247c35 129 75 252 105 315c2 5 8 7 12 5c5 -3 8 -8 5 -13c-29 -62 -69 -185 -103 -313
c-20 -76 -32 -131 -39 -169c39 124 83 245 124 339c23 55 45 98 64 129c28 46 44 52 53 53c6 0 16 -1 22 -15c19 -41 6 -103 -29 -148c-24 -31 -54 -47 -84 -48c7 -13 20 -32 42 -35c31 -6 89 19 186 162c3 5 9 6 14 3zM41 81c-2 -3 -3 -5 -4 -8c27 -3 55 11 77 40
c32 39 43 93 27 128c-1 3 -2 3 -2 3s-27 0 -98 -163z" />
    <glyph glyph-name="q" unicode="q" horiz-adv-x="327" 
d="M340 183c4 -4 4 -10 0 -14c-53 -58 -133 -112 -191 -152v0c-9 -19 -18 -40 -28 -62c-3 -7 -6 -14 -10 -21c29 -71 10 -173 -24 -231c-16 -27 -34 -42 -51 -42c-3 0 -6 1 -9 2c-8 2 -13 7 -17 14c-16 34 19 120 80 257c-5 11 -12 21 -21 29c-2 3 -4 6 -3 10
c1 11 14 21 67 57c17 38 32 75 44 106c25 68 22 89 18 95c-1 1 -2 3 -7 3v0v0c-20 0 -43 -24 -65 -55c2 -7 2 -14 2 -21c0 -5 -4 -10 -10 -9c-4 0 -7 2 -8 5c-10 -14 -19 -29 -28 -44c-39 -65 -73 -122 -108 -109c-12 4 -25 15 -25 45c-1 28 10 66 30 101c20 38 46 65 71 75
c18 7 37 5 52 -5c6 -4 12 -10 16 -16c23 30 47 52 73 52v0v0c13 0 20 -6 23 -11c17 -26 -4 -90 -48 -191c54 37 118 83 163 131c4 4 10 5 14 1zM63 120c13 22 26 43 39 63c-3 7 -8 14 -14 18c-5 4 -12 6 -18 6c-5 0 -11 -1 -16 -3c-45 -18 -89 -107 -89 -157
c0 -11 3 -24 12 -27c21 -8 57 52 86 100zM70 -287c29 47 46 131 30 194c-20 -43 -38 -86 -52 -123c-24 -65 -24 -90 -20 -99c1 -3 3 -3 4 -4c11 -3 25 9 38 32zM103 -37l15 33c-14 -10 -25 -18 -31 -23c5 -6 9 -11 13 -17c1 2 2 5 3 7z" />
    <glyph glyph-name="r" unicode="r" horiz-adv-x="322" 
d="M334 184c4 -3 5 -9 2 -14c0 -1 -49 -72 -106 -136c-64 -72 -114 -108 -150 -108c-10 0 -18 2 -26 7c-43 28 -23 75 -6 118c9 22 19 45 18 63c-1 25 -18 32 -37 41c-15 6 -30 13 -38 27c-20 41 35 97 41 103c4 4 10 4 14 0s4 -10 0 -14c-14 -14 -49 -56 -37 -80
c4 -8 15 -13 27 -18c22 -9 48 -21 50 -58c1 -22 -10 -47 -20 -72c-19 -46 -29 -76 -2 -93s80 17 151 97c57 63 105 133 105 134c3 5 9 6 14 3z" />
    <glyph glyph-name="s" unicode="s" horiz-adv-x="221" 
d="M232 180c2 -5 0 -11 -5 -13c-61 -29 -120 -65 -171 -105c37 -71 6 -151 -43 -202c-27 -28 -57 -44 -82 -44c-9 0 -17 2 -24 6c-16 9 -24 25 -23 45c2 39 37 96 96 154c16 16 33 31 51 46c-14 24 -29 58 -31 95c-2 46 17 85 55 116c4 3 10 3 13 -2c4 -4 3 -10 -1 -13
c-72 -59 -47 -137 -21 -184c52 40 111 77 173 106c5 2 11 0 13 -5zM-1 -126c43 44 72 114 42 175c-17 -13 -32 -27 -47 -42c-55 -54 -89 -107 -90 -141c-1 -13 3 -22 13 -27c18 -11 52 4 82 35z" />
    <glyph glyph-name="t" unicode="t" horiz-adv-x="92" 
d="M396 346c1 -5 -2 -10 -7 -12h-3c-4 0 -7 2 -9 6c-6 4 -46 17 -285 18c-9 -16 -18 -33 -29 -50c-18 -51 -37 -105 -55 -161c-62 -191 -128 -423 -124 -501c1 -17 4 -20 4 -20h1c5 0 9 -4 9 -10c0 -5 -4 -9 -9 -9s-14 1 -20 13c-4 8 -15 33 18 179c19 80 49 185 86 302
c16 50 33 102 50 152c-3 -1 -6 0 -9 2c-4 3 -5 9 -2 14c11 14 23 30 33 47c6 15 11 29 16 43h-46c-169 -1 -336 -6 -338 -6c-5 0 -10 4 -10 10c0 5 4 10 10 10c1 0 176 5 351 5h40c35 94 66 167 83 187c2 3 7 10 15 8c4 0 7 -2 9 -6c2 -3 5 -9 -9 -48
c-8 -22 -20 -52 -34 -82c-7 -13 -17 -35 -29 -59c68 -1 124 -2 168 -5c110 -6 122 -16 125 -27z" />
    <glyph glyph-name="u" unicode="u" horiz-adv-x="382" 
d="M394 183c4 -4 5 -10 2 -14c-5 -5 -9 -12 -15 -19c-43 -56 -123 -161 -197 -148c-24 4 -41 18 -49 40c-9 24 -9 54 -3 84c-41 -64 -85 -126 -125 -126c-5 0 -10 1 -15 3c-12 5 -21 13 -25 26c-13 33 2 92 50 190c2 5 8 7 13 4c5 -2 7 -8 4 -13c-28 -57 -63 -138 -49 -174
c3 -7 7 -12 15 -15c14 -6 33 6 59 35c24 28 49 69 72 104c11 19 22 36 32 50c2 3 4 6 6 8c3 5 9 5 13 2c5 -3 6 -9 3 -13c-2 -3 -4 -5 -6 -8c-20 -32 -42 -107 -26 -150c6 -16 17 -25 34 -28c63 -11 138 88 178 141c6 7 11 14 15 19c4 4 10 5 14 2z" />
    <glyph glyph-name="v" unicode="v" horiz-adv-x="312" 
d="M325 180c3 -5 1 -11 -3 -14c-35 -18 -66 -27 -94 -26c-31 1 -49 13 -60 23c-7 7 -13 16 -16 24c-14 -19 -29 -42 -43 -65c-47 -74 -78 -121 -106 -121c-2 0 -3 1 -5 1h-1c-5 2 -13 6 -18 17c-15 33 -4 102 32 196c2 5 7 7 12 5s8 -7 6 -12c-49 -128 -37 -170 -32 -180
c1 -3 3 -6 6 -7c2 0 12 1 34 30c17 21 36 52 55 81c22 35 43 67 61 89c3 4 9 5 13 2s5 -8 3 -12c-3 -8 0 -22 13 -34c10 -9 49 -37 130 7c5 2 11 0 13 -4z" />
    <glyph glyph-name="w" unicode="w" horiz-adv-x="437" 
d="M449 178c2 -5 0 -10 -6 -12c-59 -21 -122 -18 -159 10c-10 7 -17 15 -22 24c-6 -14 -12 -31 -18 -48c-27 -72 -55 -146 -94 -150c-11 -1 -21 2 -28 9c-26 23 -28 87 -27 159c-10 -17 -19 -34 -29 -50c-45 -80 -67 -119 -88 -119c-2 0 -4 1 -5 1c-5 2 -12 6 -15 15
c-3 7 -11 29 21 114c15 43 33 82 37 88c3 4 9 5 14 2c4 -3 5 -9 2 -13c-8 -14 -68 -151 -56 -184c1 -2 1 -3 2 -3c2 1 9 5 26 31c13 20 29 48 45 77c16 27 32 56 49 83c2 4 6 5 11 4c4 -1 7 -5 7 -9c-2 -72 -4 -161 19 -182c3 -3 8 -4 13 -4c27 3 57 84 77 138
c12 31 22 58 31 75c3 4 7 6 12 4c4 -1 7 -5 7 -9c-1 -18 11 -30 20 -38c25 -17 76 -30 142 -7c5 2 11 -1 12 -6z" />
    <glyph glyph-name="x" unicode="x" horiz-adv-x="296" 
d="M308 183c4 -3 6 -9 3 -13c-51 -74 -99 -124 -143 -149c-23 -13 -44 -17 -61 -17c-18 0 -33 5 -44 12c-24 14 -42 41 -53 70c-28 -29 -45 -54 -47 -69c-2 -6 0 -8 1 -8c4 -4 5 -10 1 -14c-2 -2 -5 -3 -7 -3c-3 0 -5 0 -7 2c-5 5 -10 13 -8 27c4 24 33 58 61 87
c-10 41 -7 84 8 114c3 4 9 6 13 4c5 -3 7 -9 4 -13c-11 -22 -14 -55 -8 -89c8 8 15 15 22 21c48 42 102 82 128 93c5 2 11 0 13 -5s0 -11 -5 -13c-24 -10 -77 -49 -123 -90c-11 -10 -21 -19 -30 -28c9 -32 26 -57 47 -69c24 -15 53 -13 86 5c41 23 87 71 135 143
c3 4 10 5 14 2z" />
    <glyph glyph-name="y" unicode="y" horiz-adv-x="359" 
d="M372 181c4 -4 3 -10 -2 -14c-169 -130 -287 -473 -325 -586c-5 -13 -8 -22 -10 -29c-4 -11 -6 -16 -14 -17v0c-4 0 -7 2 -9 5c-21 42 34 193 122 418c28 72 54 140 72 193c22 65 24 86 24 93c-4 -1 -12 -6 -25 -21s-29 -36 -46 -58c-46 -60 -93 -122 -133 -122
c-3 0 -5 0 -8 1c-12 2 -21 10 -26 22c-16 32 -3 98 18 142c3 5 9 7 14 4c4 -2 6 -8 4 -13c-19 -39 -31 -99 -19 -125c3 -6 7 -10 13 -11c30 -7 83 63 122 114c42 56 67 87 89 87c5 0 9 -2 12 -6c7 -10 7 -33 -20 -110c-18 -54 -45 -123 -73 -197c-34 -88 -70 -179 -94 -255
c-13 -40 -22 -70 -26 -92c44 128 160 451 327 579c4 3 10 2 13 -2z" />
    <glyph glyph-name="z" unicode="z" horiz-adv-x="268" 
d="M281 181c4 -4 3 -10 -1 -13c-70 -57 -131 -110 -182 -157c20 -14 33 -31 40 -52c17 -58 -29 -126 -77 -170c-37 -35 -87 -65 -125 -65c-7 0 -14 1 -21 4c-14 6 -23 16 -25 31c-5 31 20 80 76 144c26 32 60 66 100 104c-19 9 -41 15 -68 20c-4 1 -7 3 -8 7c-1 3 0 7 2 9
c30 33 50 57 64 76c23 32 19 39 19 39c-1 1 -1 1 -1 2c-1 1 -3 5 -20 7c-13 1 -27 0 -38 -1c-5 0 -8 -1 -11 -1c-6 0 -10 5 -10 10s4 10 10 10h10c34 3 67 3 76 -16c12 -20 -8 -55 -73 -126c25 -5 46 -13 63 -21c52 48 115 102 187 161c4 3 10 2 13 -2zM119 -47
c-5 17 -17 32 -36 44c-41 -39 -75 -74 -103 -106c-67 -79 -73 -115 -71 -129c1 -8 5 -13 13 -16c26 -10 79 14 126 57c44 40 85 101 71 150z" />
    <glyph glyph-name="braceleft" unicode="{" horiz-adv-x="271" 
d="M218 467c-34 -9 -49 -63 -65 -120c-12 -42 -24 -85 -45 -120c-16 -26 -34 -45 -56 -57c18 -12 31 -32 33 -54c4 -41 -17 -87 -38 -131c-9 -20 -19 -41 -26 -60c-14 -41 -5 -66 8 -75c7 -6 17 -6 24 -1c4 3 10 2 13 -2c4 -4 3 -10 -1 -14c-7 -5 -15 -7 -23 -7
c-9 0 -17 2 -25 8c-9 6 -37 33 -14 98c7 20 17 41 26 61c20 42 40 85 37 121c-2 16 -11 31 -25 39c-4 3 -10 5 -17 6c-5 -2 -10 -3 -15 -3c-5 -1 -10 2 -11 7c-1 4 1 9 6 11c5 3 11 4 17 4c69 20 92 102 113 174c18 63 34 121 78 134c17 5 34 2 44 -9c11 -9 15 -23 11 -39
c-1 -5 -6 -8 -11 -7c-6 1 -9 6 -8 11c2 9 0 16 -5 21c-6 6 -15 7 -25 4z" />
    <glyph glyph-name="bar" unicode="|" horiz-adv-x="295" 
d="M259 510c5 -2 8 -7 6 -13l-235 -698c-1 -4 -5 -7 -9 -7c-1 0 -2 0 -3 1c-5 1 -8 7 -6 12l235 699c1 5 7 8 12 6z" />
    <glyph glyph-name="braceright" unicode="}" horiz-adv-x="279" 
d="M228 382c-8 -20 -17 -41 -27 -61c-19 -42 -40 -86 -36 -121c1 -16 11 -31 24 -39c4 -3 11 -6 18 -6c5 2 10 3 15 3c5 1 9 -2 11 -7c1 -5 -2 -10 -6 -11c-6 -3 -12 -4 -17 -4c-69 -20 -93 -102 -113 -175c-18 -62 -35 -121 -79 -133c-5 -2 -10 -2 -15 -2
c-11 0 -21 3 -29 10c-10 10 -14 24 -11 39c1 6 6 9 12 8c5 -1 8 -6 7 -12c-1 -8 0 -16 5 -20c6 -6 16 -7 26 -5c33 10 49 64 65 121c12 41 24 84 45 120c15 26 34 45 56 57c-19 11 -31 32 -34 54c-4 41 18 87 38 131c10 20 19 40 26 60c15 41 6 66 -7 75c-8 6 -18 6 -24 1
c-4 -3 -10 -2 -14 2c-3 4 -2 10 2 13c13 11 32 11 47 0c9 -6 37 -33 15 -98z" />
    <glyph glyph-name="asciitilde" unicode="~" horiz-adv-x="290" 
d="M232 183c5 3 11 3 14 -2c4 -4 3 -10 -1 -13c-25 -21 -46 -31 -63 -31h-6c-21 2 -33 19 -44 34c-10 13 -18 24 -30 25c-13 1 -32 -8 -55 -28c-4 -4 -10 -3 -14 1c-3 4 -3 10 1 14c29 24 51 35 70 32c21 -2 33 -18 44 -33c9 -12 18 -24 31 -26c13 -1 31 8 53 27z" />
    </font>
</defs>
</svg>
